<svg width="742" height="582" viewBox="0 0 742 582" fill="none" xmlns="http://www.w3.org/2000/svg">
<path d="M355.711 367.611C355.675 367.69 355.649 367.773 355.634 367.859L355.582 368.186L355.479 368.841L355.288 370.153L354.946 372.781C354.738 374.535 354.553 376.292 354.381 378.05C354.045 381.567 353.741 385.089 353.535 388.615C353.102 395.668 352.816 402.727 352.678 409.793C352.543 416.858 352.568 423.922 352.62 430.987C352.668 434.518 352.723 438.05 352.828 441.58L353.215 452.168L353.908 451.291L308.555 460.411L285.859 464.862L274.498 467.004L268.81 468.016L265.966 468.48L264.547 468.683L263.846 468.762L263.51 468.787L263.362 468.791C263.325 468.795 263.27 468.774 263.36 468.806L263.463 468.862C260.634 467.009 257.756 465.279 254.846 463.585C251.927 461.91 248.955 460.326 245.91 458.887C242.888 457.386 239.763 456.101 236.557 455.043C234.942 454.524 233.295 454.109 231.626 453.799C229.936 453.466 228.207 453.37 226.49 453.514L227.013 454.005C227.537 446.123 228.106 438.244 228.721 430.366L230.581 406.742C231.236 398.872 231.897 391.002 232.696 383.152C233.096 379.228 233.523 375.307 234.031 371.406C234.287 369.456 234.563 367.51 234.894 365.587C235.061 364.627 235.243 363.672 235.456 362.743C235.562 362.281 235.677 361.821 235.812 361.399C235.873 361.204 235.944 361.012 236.024 360.824C236.061 360.745 236.095 360.682 236.118 360.643C236.111 360.63 236.178 360.641 235.895 360.789L235.501 360.875C246.27 360.615 257.067 360.564 267.836 360.821C273.219 360.974 278.603 361.148 283.959 361.553C286.635 361.758 289.306 362.017 291.939 362.417C293.253 362.62 294.562 362.855 295.826 363.178C297.02 363.415 298.156 363.885 299.168 364.561L299.202 364.589C299.336 364.7 299.503 364.766 299.677 364.776C308.918 365.323 318.185 365.758 327.51 366.229L355.711 367.611ZM355.871 367.483L328.012 365.263C318.65 364.534 309.23 363.769 299.784 363.114L300.292 363.33C299.096 362.444 297.724 361.824 296.268 361.511C294.921 361.148 293.573 360.887 292.223 360.658C289.524 360.208 286.821 359.908 284.118 359.661C278.711 359.177 273.301 358.9 267.891 358.756C257.07 358.464 246.264 358.482 235.443 358.709L235.391 358.71C235.272 358.713 235.155 358.742 235.049 358.795C234.741 358.937 234.481 359.166 234.303 359.454C234.207 359.605 234.122 359.763 234.047 359.926C233.93 360.191 233.828 360.462 233.74 360.738C233.574 361.257 233.449 361.757 233.332 362.257C233.107 363.254 232.931 364.242 232.767 365.229C232.444 367.203 232.181 369.172 231.939 371.142C231.458 375.08 231.062 379.018 230.692 382.958C229.965 390.838 229.33 398.72 228.787 406.606C228.251 414.494 227.729 422.381 227.301 430.273L226.076 453.953C226.069 454.076 226.11 454.197 226.192 454.29C226.275 454.383 226.39 454.439 226.514 454.447C226.542 454.448 226.571 454.447 226.6 454.444C229.901 454.198 233.218 454.637 236.341 455.733C239.526 456.747 242.634 457.987 245.642 459.443C248.651 460.908 251.584 462.53 254.464 464.236C257.345 465.937 260.167 467.761 262.88 469.696L262.898 469.709C262.924 469.727 262.952 469.741 262.982 469.751C263.097 469.791 263.217 469.81 263.338 469.809L263.551 469.807L263.937 469.782L264.673 469.705L266.119 469.512L268.986 469.07L274.695 468.105L286.084 466.06L308.826 461.8C323.976 458.908 339.124 456.009 354.248 452.98C354.447 452.94 354.626 452.831 354.753 452.672C354.88 452.514 354.946 452.315 354.941 452.112L354.94 452.103L354.642 441.531L354.397 430.959C354.272 423.91 354.174 416.86 354.235 409.811C354.255 402.762 354.321 395.711 354.589 388.667C354.73 385.146 354.855 381.622 355.06 378.103C355.163 376.343 355.278 374.584 355.415 372.827L355.871 367.483Z" fill="black"/>
<path d="M354.486 367.491C356.393 364.974 358.206 362.397 360.064 359.848C360.119 359.772 360.148 359.679 360.146 359.584C360.143 359.489 360.109 359.398 360.049 359.324L360.029 359.3C357.825 356.642 355.382 354.192 352.729 351.982C350.086 349.741 347.244 347.745 344.24 346.017C341.207 344.285 337.978 342.918 334.622 341.946C331.235 340.975 327.713 340.559 324.192 340.713L324.167 340.714C324.01 340.723 323.858 340.771 323.725 340.856C323.593 340.94 323.484 341.058 323.411 341.196C321.429 344.941 319.487 348.707 317.585 352.494C316.627 354.384 315.691 356.286 314.776 358.2C313.852 360.108 312.92 362.013 312.041 363.945C313.192 362.161 314.292 360.348 315.399 358.539C316.515 356.735 317.609 354.919 318.683 353.092C320.842 349.445 322.963 345.776 325.044 342.086L324.263 342.569C327.579 342.527 330.883 342.975 334.067 343.9C337.273 344.832 340.365 346.117 343.286 347.731C346.24 349.338 349.063 351.175 351.729 353.224C354.418 355.265 356.958 357.495 359.332 359.894L359.297 359.346C357.692 362.06 356.043 364.745 354.486 367.491ZM310.194 363.945C309.558 361.466 308.656 359.063 307.502 356.777C306.371 354.457 304.993 352.266 303.393 350.24L302.156 348.737C301.721 348.256 301.25 347.805 300.798 347.337C299.873 346.415 298.896 345.547 297.87 344.739C297.358 344.331 296.792 343.995 296.251 343.625C295.718 343.242 295.159 342.896 294.578 342.589C293.431 341.943 292.236 341.386 291.003 340.924L289.144 340.247C288.517 340.045 287.863 339.943 287.223 339.788L285.27 339.366C284.388 339.248 283.494 339.457 282.757 339.953C282.387 340.201 282.068 340.516 281.816 340.882C281.605 341.208 281.445 341.468 281.27 341.772C280.931 342.369 280.638 342.99 280.392 343.63C279.869 344.947 279.632 346.36 279.694 347.775C279.797 349.222 280.265 350.619 281.055 351.836C281.448 352.421 281.905 352.96 282.418 353.443C282.673 353.678 282.915 353.934 283.183 354.147L284.014 354.743C286.239 356.182 288.682 357.254 291.249 357.917L291.028 357.815C292.524 358.771 294.007 359.832 295.422 360.94C296.857 362.042 298.231 363.221 299.538 364.472C300.292 365.093 301.175 365.538 302.123 365.774C303.072 366.01 304.061 366.031 305.019 365.835C306.851 365.547 308.609 364.905 310.194 363.945ZM310.194 363.945C309.36 364.31 308.497 364.606 307.614 364.828C306.749 365.071 305.86 365.219 304.962 365.27C304.113 365.374 303.251 365.289 302.439 365.02C301.627 364.752 300.884 364.307 300.265 363.718C299.018 362.362 297.699 361.074 296.313 359.86C294.908 358.652 293.47 357.518 291.938 356.435C291.89 356.402 291.839 356.375 291.784 356.356L291.716 356.333C289.374 355.625 287.152 354.571 285.123 353.205L284.416 352.671C284.193 352.482 284.005 352.264 283.797 352.064C283.392 351.667 283.028 351.23 282.713 350.759C282.123 349.829 281.776 348.767 281.704 347.669C281.669 346.535 281.874 345.407 282.306 344.358C282.517 343.812 282.765 343.281 283.047 342.768C283.184 342.52 283.359 342.237 283.489 342.028C283.596 341.867 283.733 341.729 283.893 341.62C284.22 341.395 284.619 341.299 285.014 341.348L286.794 341.723C287.391 341.862 288.004 341.947 288.588 342.13L290.331 342.721C291.493 343.119 292.623 343.607 293.71 344.18C294.262 344.451 294.795 344.761 295.304 345.107C295.82 345.443 296.363 345.742 296.865 346.1C298.883 347.552 300.733 349.224 302.38 351.085C305.722 354.88 308.367 359.233 310.194 363.945Z" fill="black"/>
<path d="M369.169 485.502C362.037 485.502 356.255 479.73 356.255 472.61C356.255 465.49 362.037 459.719 369.169 459.719C376.302 459.719 382.083 465.49 382.083 472.61C382.083 479.73 376.302 485.502 369.169 485.502Z" fill="black"/>
<path d="M447.463 453.321C447.236 455.139 447.008 456.967 446.842 458.802C446.721 460.637 446.631 462.479 446.652 464.321C446.67 468.002 446.897 471.695 447.132 475.322C447.333 478.906 447.461 482.659 445.539 485.431C444.592 486.826 443.318 487.969 441.828 488.761C440.302 489.522 438.634 489.958 436.93 490.04C436.067 490.086 435.202 490.053 434.345 489.94C433.516 489.826 432.559 489.609 431.641 489.486C429.794 489.213 427.93 489.077 426.063 489.079C422.343 489.085 418.642 489.619 415.074 490.667C413.3 491.203 411.57 491.872 409.897 492.667C409.041 493.025 408.255 493.521 407.43 493.943C406.648 494.391 405.837 494.79 405.004 495.135C401.626 496.444 398.018 497.064 394.396 496.958C390.812 496.95 387.263 496.271 383.93 494.955C383.144 494.628 382.399 494.208 381.713 493.704C381.089 493.283 380.601 492.691 380.308 491.999C380.248 491.853 380.212 491.698 380.201 491.541C380.183 491.481 380.18 491.417 380.194 491.356C380.19 491.303 380.199 491.249 380.221 491.2C380.321 490.9 380.488 490.626 380.71 490.399C381.283 489.784 381.925 489.237 382.623 488.768C384.071 487.75 385.639 486.816 387.208 485.887C388.791 484.959 390.348 484.05 391.958 483.215C395.158 481.514 398.458 480.034 401.836 478.6C405.338 477.234 408.645 475.415 411.672 473.189C414.618 470.81 417.109 467.918 419.024 464.654C422.602 458.211 426.089 451.798 429.489 445.288C429.501 445.265 429.504 445.237 429.496 445.212C429.489 445.187 429.472 445.165 429.449 445.152C429.426 445.139 429.399 445.135 429.374 445.141C429.348 445.147 429.326 445.163 429.311 445.185C425.336 451.34 421.473 457.609 417.655 463.819C415.749 466.832 413.314 469.476 410.467 471.624C407.517 473.661 404.328 475.33 400.972 476.593C397.546 477.993 394.198 479.577 390.943 481.337C389.313 482.221 387.719 483.193 386.156 484.149C384.589 485.118 383.019 486.09 381.488 487.211C380.674 487.782 379.93 488.448 379.272 489.193C378.87 489.642 378.58 490.178 378.423 490.76C378.335 491.092 378.321 491.439 378.384 491.777C378.42 492.075 378.499 492.367 378.618 492.644C379.057 493.644 379.78 494.494 380.698 495.089C381.508 495.647 382.383 496.105 383.304 496.455C386.86 497.727 390.635 498.279 394.408 498.079C398.143 497.992 401.83 497.218 405.286 495.798C406.141 495.427 406.972 495.002 407.773 494.526C408.575 494.101 409.337 493.6 410.171 493.237C411.807 492.445 413.509 491.799 415.258 491.306C417.012 490.837 418.8 490.506 420.606 490.318C422.409 490.158 424.222 490.125 426.031 490.219C427.834 490.315 429.627 490.542 431.397 490.898C432.291 491.065 433.113 491.305 434.093 491.496C435.047 491.68 436.019 491.763 436.99 491.744C438.968 491.719 440.914 491.25 442.685 490.372C444.463 489.459 445.968 488.093 447.048 486.413C448.094 484.729 448.701 482.811 448.814 480.833C448.923 478.96 448.886 477.081 448.703 475.214C448.394 471.537 447.904 467.934 447.728 464.29C447.637 462.471 447.561 460.649 447.539 458.823L447.667 453.343L447.667 453.336C447.668 453.309 447.658 453.284 447.641 453.264C447.623 453.245 447.599 453.233 447.572 453.231C447.546 453.229 447.52 453.238 447.5 453.254C447.48 453.271 447.466 453.295 447.463 453.321Z" fill="black"/>
<path d="M379.258 492.065C379.258 492.065 381.813 498.854 400.257 496.939C401.016 490.078 391.415 481.332 391.415 481.332C392.235 479.591 395.569 478.127 398.749 477.093C398.49 477.286 398.297 477.555 398.197 477.862C398.097 478.169 398.095 478.499 398.19 478.808C398.286 479.116 398.475 479.388 398.731 479.585C398.987 479.782 399.298 479.895 399.621 479.909C400.021 479.896 400.399 479.728 400.677 479.441C400.955 479.155 401.11 478.771 401.11 478.373C401.11 477.974 400.955 477.591 400.677 477.304C400.399 477.017 400.021 476.85 399.621 476.836H399.591C402.535 475.935 405.13 475.423 405.13 475.423C412.455 474.952 417.943 490.313 417.943 490.313C417.943 490.313 418.179 490.426 419.42 490.057C428.058 487.466 441.332 494.676 445.917 486.473C445.917 486.473 448.267 489.709 443.414 493.601L445.969 499.141H429.237L423.39 496.663V492.065C423.39 492.065 407.582 497.574 399.457 500.032C389.794 502.951 375.617 499.141 379.258 492.065ZM408.854 493.55C409.253 493.536 409.632 493.369 409.909 493.082C410.187 492.795 410.343 492.412 410.343 492.013C410.343 491.615 410.187 491.231 409.909 490.945C409.632 490.658 409.253 490.49 408.854 490.477C408.455 490.49 408.076 490.658 407.798 490.945C407.521 491.231 407.365 491.615 407.365 492.013C407.365 492.412 407.521 492.795 407.798 493.082C408.076 493.369 408.455 493.536 408.854 493.55ZM404.792 486.176C405.191 486.163 405.569 485.995 405.847 485.709C406.125 485.422 406.28 485.039 406.28 484.64C406.28 484.241 406.125 483.858 405.847 483.571C405.569 483.285 405.191 483.117 404.792 483.104C404.392 483.117 404.014 483.285 403.736 483.571C403.458 483.858 403.303 484.241 403.303 484.64C403.303 485.039 403.458 485.422 403.736 485.709C404.014 485.995 404.392 486.163 404.792 486.176ZM519.06 471.143C520.467 468.232 521.26 465.063 521.388 461.834V461.772C521.358 461.045 521.275 460.318 521.214 459.591C521.152 458.854 521.081 458.127 520.998 457.4C520.994 457.373 520.98 457.349 520.96 457.332C520.939 457.315 520.912 457.306 520.886 457.307C520.834 457.318 520.793 457.348 520.793 457.4C520.701 458.127 520.629 458.854 520.557 459.581C520.486 460.298 520.403 461.004 520.362 461.711C520.062 464.743 519.159 467.685 517.706 470.364C516.29 472.503 514.529 474.393 512.494 475.956C512.135 476.253 511.766 476.55 511.397 476.847C509.971 477.963 508.524 479.079 507.078 480.185C507.456 480.284 507.783 480.523 507.989 480.855C508.195 481.187 508.266 481.585 508.186 481.967C509.683 480.779 511.161 479.571 512.617 478.311C513.335 477.697 514.054 477.062 514.751 476.396C516.452 474.879 517.906 473.107 519.06 471.143Z" fill="black"/>
<path d="M489.823 498.629C489.941 499.179 490.179 499.697 490.521 500.144C490.779 500.503 491.087 500.823 491.434 501.097C492.858 502.094 494.514 502.711 496.245 502.889C499.454 503.276 502.706 503.131 505.867 502.459C508.995 501.836 512.034 500.832 514.915 499.469C515.5 499.182 516.085 498.875 516.649 498.547C517.579 498.034 518.473 497.459 519.326 496.827C520.52 495.967 521.614 494.978 522.589 493.877C524.648 491.552 527.032 489.534 529.667 487.886C530.992 487.094 532.382 486.416 533.822 485.859C535.264 485.326 536.751 484.919 538.263 484.64C539.779 484.369 541.311 484.202 542.849 484.138C544.505 484.052 546.135 483.688 547.67 483.063C549.226 482.422 550.641 481.483 551.835 480.298C552.916 479.26 553.756 477.998 554.297 476.601C554.373 476.393 554.438 476.181 554.492 475.966C554.954 474.309 554.993 472.563 554.605 470.887C554.24 469.276 553.634 467.73 552.81 466.299C551.204 463.528 549.156 461.038 546.747 458.925C544.493 456.839 543.152 453.951 543.013 450.886C543.014 450.873 543.012 450.859 543.007 450.846C543.002 450.833 542.994 450.822 542.985 450.812C542.975 450.802 542.963 450.795 542.951 450.79C542.938 450.785 542.924 450.783 542.91 450.784C542.898 450.783 542.886 450.783 542.874 450.787C542.862 450.79 542.851 450.796 542.842 450.803C542.832 450.811 542.824 450.82 542.819 450.831C542.813 450.842 542.809 450.854 542.808 450.866C542.567 452.467 542.755 454.102 543.352 455.607C543.927 457.13 544.776 458.535 545.855 459.755C548.033 461.92 549.886 464.39 551.353 467.087C552.707 469.729 553.6 472.75 552.738 475.444C552.32 476.801 551.565 478.03 550.543 479.018C549.519 480.058 548.312 480.902 546.983 481.506C545.641 482.129 544.207 482.53 542.736 482.694C541.147 482.85 539.57 483.113 538.017 483.483C536.466 483.868 534.949 484.382 533.483 485.019C533.134 485.172 532.796 485.336 532.457 485.51C532.439 485.514 532.422 485.521 532.406 485.531C531.329 486.074 530.293 486.657 529.287 487.292C526.657 489.048 524.24 491.103 522.086 493.416C519.975 495.674 517.39 497.437 514.515 498.578C511.668 499.772 508.679 500.595 505.621 501.025C504.688 501.158 503.754 501.271 502.821 501.332C500.723 501.517 498.61 501.437 496.532 501.097C495.135 500.918 493.801 500.405 492.645 499.602C492.183 499.245 491.864 498.735 491.746 498.164C491.627 497.593 491.717 496.999 491.998 496.488C492.608 495.197 493.453 494.03 494.491 493.048C495.581 491.985 496.732 490.986 497.938 490.057L501.436 487.292L505.293 484.251C505.734 483.903 506.165 483.565 506.606 483.216C506.408 483.206 506.214 483.155 506.036 483.067C505.858 482.978 505.7 482.854 505.573 482.703C505.445 482.551 505.349 482.375 505.292 482.185C505.236 481.995 505.218 481.795 505.242 481.598C503.262 483.104 501.282 484.619 499.323 486.156C498.399 486.893 497.486 487.62 496.573 488.357C495.296 489.34 494.093 490.415 492.973 491.573C491.759 492.775 490.784 494.197 490.1 495.761C489.727 496.669 489.631 497.667 489.823 498.629Z" fill="black"/>
<path d="M490.521 500.145C490.531 500.042 490.541 499.94 490.562 499.837C490.562 499.837 493.332 503.38 502.821 501.332C505.993 500.614 509.088 499.592 512.063 498.281C511.13 493.478 504.954 489.31 501.436 487.292C500.482 486.749 499.733 486.36 499.323 486.156C499.107 486.043 498.984 485.992 498.984 485.992C499.517 482.121 510.33 476.294 510.33 476.294C511.02 476.034 511.757 475.919 512.494 475.956C513.265 475.985 514.026 476.134 514.751 476.396C520.752 478.424 526.989 486.719 526.989 486.719C526.989 486.719 528.272 487.784 529.349 487.057C530.305 486.431 531.331 485.919 532.406 485.531C532.422 485.521 532.439 485.514 532.457 485.51C540.336 482.582 551.897 483.841 553.589 475.792C553.865 476.024 554.104 476.297 554.297 476.601C554.985 477.687 555.641 479.909 553.323 483.35L557.406 487.886L541.423 492.833L535.104 492.198L533.729 487.804C533.729 487.804 526.169 492.464 519.326 496.827C518.413 497.41 517.521 497.984 516.649 498.547C515.018 499.602 513.489 500.605 512.217 501.466C503.97 507.047 489.567 507.661 490.521 500.145ZM512.628 488.019C513.027 488.006 513.405 487.839 513.683 487.552C513.961 487.265 514.116 486.882 514.116 486.483C514.116 486.084 513.961 485.701 513.683 485.415C513.405 485.128 513.027 484.96 512.628 484.947C512.228 484.96 511.85 485.128 511.572 485.415C511.294 485.701 511.139 486.084 511.139 486.483C511.139 486.882 511.294 487.265 511.572 487.552C511.85 487.839 512.228 488.006 512.628 488.019ZM507.068 480.185C506.953 480.164 506.836 480.154 506.719 480.154C506.526 480.148 506.333 480.181 506.154 480.251C505.974 480.321 505.81 480.427 505.672 480.562C505.534 480.697 505.424 480.858 505.35 481.036C505.277 481.214 505.24 481.406 505.242 481.598C505.218 481.795 505.235 481.995 505.292 482.185C505.349 482.375 505.445 482.551 505.572 482.703C505.7 482.854 505.858 482.978 506.036 483.067C506.214 483.155 506.408 483.206 506.606 483.216C506.643 483.225 506.681 483.228 506.719 483.227C507.077 483.24 507.427 483.117 507.699 482.884C507.971 482.65 508.145 482.323 508.186 481.967C508.266 481.585 508.195 481.187 507.989 480.855C507.783 480.523 507.456 480.283 507.078 480.185H507.068ZM518.167 490.108C517.769 490.123 517.391 490.291 517.114 490.577C516.837 490.864 516.682 491.246 516.682 491.645C516.682 492.043 516.837 492.425 517.114 492.712C517.391 492.998 517.769 493.167 518.167 493.181C518.566 493.167 518.943 492.998 519.22 492.712C519.497 492.425 519.652 492.043 519.652 491.645C519.652 491.246 519.497 490.864 519.22 490.577C518.943 490.291 518.566 490.123 518.167 490.108ZM497.915 118.159L498.519 118.51C498.738 118.591 498.971 118.649 499.2 118.717C499.441 118.734 499.682 118.736 499.922 118.723C500.162 118.686 500.396 118.624 500.622 118.537C501.495 118.138 502.227 117.485 502.722 116.663C503.725 115.04 504.131 113.119 503.87 111.229L503.751 110.522L503.552 109.831C503.418 109.337 503.194 108.872 502.891 108.459C502.542 107.964 502.013 107.626 501.417 107.516C500.849 107.442 500.273 107.529 499.753 107.768C498.869 108.188 498.063 108.757 497.372 109.449C496.69 110.094 496.063 110.795 495.497 111.544L495.929 111.246C494.951 111.408 493.946 111.279 493.04 110.874C492.038 110.46 491.084 109.935 490.197 109.311C488.369 108.01 486.661 106.551 485.091 104.95C481.896 101.723 478.889 98.3178 476.082 94.7504L476.045 94.7048C475.982 94.6255 475.904 94.5595 475.815 94.5104C475.727 94.4613 475.629 94.4301 475.528 94.4187C475.428 94.4072 475.326 94.4157 475.228 94.4436C475.131 94.4715 475.04 94.5184 474.96 94.5814C474.865 94.6571 474.79 94.7538 474.739 94.8638C474.252 95.9249 473.839 96.9716 473.448 98.0472C473.061 99.1191 472.712 100.206 472.426 101.315C472.125 102.425 471.909 103.556 471.779 104.699C471.629 105.865 471.659 107.047 471.868 108.203L471.902 107.93C471.454 108.873 470.886 109.755 470.213 110.554C469.553 111.363 468.768 112.063 467.887 112.626L467.871 112.637C467.835 112.659 467.805 112.688 467.782 112.722C467.758 112.756 467.742 112.795 467.734 112.836C467.646 113.286 467.642 113.748 467.724 114.199C467.803 114.666 468.012 115.102 468.328 115.455C468.651 115.798 469.061 116.048 469.515 116.176C469.731 116.236 469.951 116.283 470.173 116.317L470.829 116.354L470.521 116.025C470.454 117.398 470.513 118.774 470.697 120.137C470.868 121.505 471.185 122.85 471.642 124.151C472.119 125.465 472.782 126.703 473.61 127.829C474.508 128.939 475.622 129.855 476.885 130.522C476.923 130.543 476.964 130.556 477.006 130.562L477.067 130.57C478.293 130.684 479.48 131.062 480.546 131.678C481.612 132.294 482.531 133.134 483.241 134.139C483.538 134.647 483.76 135.195 483.899 135.767C484.029 136.365 484.102 136.974 484.117 137.585L484.292 141.535L484.467 140.966C482.435 143.531 480.514 146.154 478.698 148.881C477.798 150.251 476.91 151.629 476.106 153.086C475.71 153.822 475.312 154.552 474.977 155.351C474.582 156.197 474.321 157.1 474.205 158.026C474.184 158.198 474.209 158.372 474.275 158.531C474.341 158.691 474.448 158.831 474.584 158.937C474.72 159.044 474.882 159.114 475.053 159.14C475.224 159.167 475.399 159.149 475.561 159.088L475.602 159.072C478.688 157.836 481.706 156.434 484.641 154.872C487.57 153.38 490.43 151.77 493.293 150.172C496.155 148.57 498.965 146.882 501.779 145.205C504.587 143.517 507.389 141.823 510.167 140.089L510.178 140.082C510.26 140.031 510.332 139.964 510.388 139.885C510.445 139.806 510.485 139.716 510.507 139.622C510.529 139.528 510.532 139.43 510.515 139.334C510.499 139.239 510.465 139.147 510.413 139.065C510.368 138.993 510.31 138.929 510.243 138.876C509.004 137.881 507.893 136.737 506.934 135.47C505.959 134.196 505.161 132.797 504.56 131.31C503.936 129.823 503.574 128.241 503.49 126.632C503.408 125.003 503.573 123.371 503.979 121.791L503.981 121.782C503.987 121.756 503.982 121.729 503.968 121.707C503.954 121.684 503.933 121.668 503.907 121.661C503.882 121.655 503.855 121.658 503.832 121.671C503.809 121.683 503.791 121.704 503.783 121.729C503.216 123.308 502.913 124.968 502.886 126.645C502.851 128.342 503.115 130.031 503.666 131.637C504.219 133.246 504.987 134.773 505.949 136.177C506.912 137.6 508.05 138.897 509.336 140.037L509.413 138.824L500.869 143.636L492.28 148.348C489.415 149.912 486.521 151.418 483.636 152.926C482.188 153.67 480.737 154.408 479.275 155.108C477.827 155.794 476.317 156.533 474.919 157.076L476.316 158.122C476.413 157.441 476.605 156.777 476.886 156.149C477.163 155.447 477.528 154.746 477.886 154.049C478.623 152.654 479.467 151.29 480.321 149.936C482.06 147.243 483.91 144.589 485.811 142.002L485.832 141.974C485.946 141.818 486.001 141.626 485.987 141.433L485.686 137.472C485.646 136.764 485.532 136.062 485.345 135.377C485.138 134.673 484.828 134.003 484.426 133.389C483.603 132.201 482.478 131.251 481.167 130.639C479.902 130.04 478.541 129.668 477.147 129.54L477.328 129.588C476.169 129.032 475.133 128.248 474.282 127.284C473.455 126.267 472.798 125.122 472.337 123.895C471.879 122.649 471.555 121.358 471.37 120.044C471.172 118.728 471.094 117.397 471.137 116.067C471.14 115.983 471.11 115.902 471.053 115.84C470.996 115.778 470.916 115.741 470.832 115.738L470.829 115.738C470.447 115.738 470.067 115.684 469.701 115.578C469.358 115.479 469.048 115.289 468.806 115.028C468.587 114.741 468.435 114.409 468.362 114.056C468.289 113.703 468.297 113.339 468.384 112.989L468.231 113.198C469.189 112.617 470.053 111.893 470.79 111.05C471.533 110.212 472.177 109.293 472.71 108.309C472.748 108.238 472.762 108.156 472.75 108.076L472.744 108.035C472.613 106.972 472.644 105.895 472.836 104.84C473.016 103.761 473.278 102.697 473.619 101.657C473.947 100.609 474.336 99.5746 474.763 98.5569C475.189 97.5439 475.654 96.5237 476.151 95.5689L474.808 95.6822C476.148 97.5902 477.587 99.3852 479.072 101.164C480.57 102.937 482.155 104.632 483.824 106.246C485.501 107.889 487.32 109.38 489.261 110.702C490.266 111.379 491.343 111.942 492.472 112.379C493.691 112.882 495.032 113.006 496.322 112.736C496.491 112.694 496.64 112.594 496.743 112.453L496.755 112.437C497.666 111.033 498.87 109.843 500.285 108.949C500.987 108.618 501.532 108.628 501.973 109.18C502.214 109.481 502.396 109.825 502.51 110.193L502.713 110.782L502.845 111.393C503.165 113.069 502.92 114.803 502.148 116.324C501.769 117.078 501.172 117.701 500.435 118.113C500.059 118.306 499.638 118.396 499.215 118.375C498.793 118.353 498.384 118.22 498.029 117.989L498.021 117.984C497.998 117.969 497.971 117.965 497.944 117.971C497.918 117.977 497.895 117.994 497.881 118.017C497.866 118.04 497.862 118.067 497.868 118.094C497.874 118.12 497.89 118.143 497.913 118.157L497.915 118.159Z" fill="black"/>
<path d="M496.68 120.654C494.995 122.413 493.561 124.042 491.935 125.448C491.131 126.151 490.273 126.789 489.366 127.354C488.39 127.945 487.379 128.477 486.339 128.949C487.554 129.248 488.828 129.206 490.02 128.827C491.224 128.452 492.335 127.827 493.28 126.993C494.21 126.177 494.991 125.206 495.59 124.124C496.199 123.059 496.571 121.876 496.68 120.654ZM500.016 118.501C500.744 119.893 501.815 121.077 503.127 121.942C503.488 122.174 503.895 122.327 504.319 122.391C504.744 122.456 505.177 122.429 505.591 122.314C506.009 122.173 506.397 121.954 506.733 121.669C507.032 121.379 507.309 121.067 507.563 120.737C509.401 118.181 510.774 115.322 511.617 112.29C512.511 109.214 512.72 105.981 512.228 102.817C511.672 99.6204 510.302 96.6205 508.249 94.1055C506.228 91.5866 503.655 89.5639 500.728 88.1932C497.775 86.8993 494.547 86.3554 491.332 86.61C488.178 86.845 485.102 87.6934 482.275 89.1073C481.576 89.4576 480.896 89.8459 480.24 90.2705L479.261 90.9095L478.341 91.6347C477.076 92.552 476.076 93.7878 475.445 95.2162C476.253 93.9274 477.357 92.8491 478.665 92.0707L479.618 91.4624L480.625 90.9419C481.294 90.5982 481.983 90.2917 482.686 90.0236C485.461 88.9038 488.414 88.2885 491.406 88.2067C494.342 88.1152 497.259 88.7149 499.92 89.9571C502.54 91.2402 504.839 93.0939 506.646 95.3817C508.511 97.6237 509.777 100.302 510.322 103.165C510.84 106.062 510.755 109.035 510.071 111.898C509.942 112.63 509.683 113.332 509.496 114.053C509.24 114.752 509.026 115.471 508.73 116.158C508.186 117.554 507.518 118.899 506.736 120.177C506.55 120.474 506.346 120.758 506.123 121.029C505.895 121.262 505.627 121.453 505.33 121.591C505.014 121.709 504.676 121.759 504.339 121.737C504.002 121.714 503.674 121.621 503.376 121.462C502.049 120.737 500.901 119.726 500.016 118.501ZM509.807 139.557C511.327 139.528 512.837 139.803 514.248 140.366C514.942 140.642 515.616 140.968 516.263 141.341C516.888 141.742 517.488 142.181 518.06 142.655C519.179 143.632 520.165 144.751 520.994 145.983C521.382 146.621 521.795 147.24 522.17 147.882L523.115 149.92C523.428 150.603 523.696 151.306 523.915 152.025C524.145 152.743 524.442 153.435 524.617 154.171L525.147 156.38C525.354 157.11 525.513 157.853 525.624 158.603C525.853 160.108 526.188 161.596 526.364 163.116L526.885 167.686L526.885 167.623C526.819 171.087 526.787 174.55 526.618 178.006C526.47 181.464 526.256 184.918 525.977 188.369L525.17 198.728C524.952 202.188 524.741 205.642 524.688 209.135L524.692 209.218L524.694 209.239C524.851 210.758 525.067 212.231 525.343 213.722C525.609 215.234 525.994 216.723 526.492 218.175L526.523 218.247L526.557 218.317C526.635 218.513 526.68 218.721 526.689 218.933C526.695 219.155 526.654 219.376 526.569 219.581C526.332 220.06 525.953 220.455 525.484 220.711C524.276 221.368 522.958 221.798 521.594 221.978C518.658 222.389 515.69 222.531 512.727 222.402C509.729 222.292 506.718 222.073 503.707 221.8C500.697 221.514 497.687 221.162 494.667 220.831C494.64 220.828 494.613 220.836 494.591 220.852C494.57 220.869 494.556 220.894 494.553 220.921C494.55 220.946 494.556 220.971 494.57 220.991C494.585 221.012 494.606 221.027 494.63 221.033C497.583 221.747 500.551 222.429 503.554 222.931C506.558 223.484 509.588 223.884 512.633 224.13C515.722 224.439 518.836 224.414 521.921 224.055C523.576 223.872 525.179 223.369 526.642 222.575C527.501 222.077 528.182 221.324 528.591 220.421C528.797 219.919 528.893 219.38 528.873 218.838C528.853 218.297 528.718 217.766 528.477 217.28L528.541 217.422C528.063 216.079 527.677 214.706 527.385 213.311C527.084 211.901 526.831 210.45 526.646 209.03L526.652 209.135C526.638 205.708 526.684 202.245 526.73 198.79L526.848 188.411C526.909 184.951 527.048 181.494 527.266 178.041C527.467 174.587 527.815 171.141 528.148 167.696L528.149 167.654L528.148 167.633L527.966 162.951C527.939 162.167 527.862 161.386 527.734 160.613L527.415 158.278C527.306 157.498 527.147 156.725 526.94 155.965L526.362 153.668C526.163 152.904 525.837 152.17 525.58 151.421C525.337 150.664 525.036 149.926 524.679 149.215C523.392 146.254 521.373 143.667 518.812 141.696C518.152 141.235 517.464 140.815 516.751 140.439C516.023 140.099 515.266 139.825 514.489 139.621C512.957 139.18 511.345 139.089 509.773 139.355C509.748 139.36 509.725 139.374 509.71 139.395C509.695 139.415 509.688 139.441 509.69 139.466C509.693 139.492 509.705 139.515 509.725 139.532C509.744 139.549 509.769 139.558 509.794 139.558L509.807 139.557Z" fill="black"/>
<path d="M518.67 173.837C518.66 176.328 518.323 178.806 517.667 181.208C517.063 183.625 516.382 186.024 515.551 188.369C514.759 190.7 513.787 192.966 512.645 195.147C512.404 195.615 512.093 196.045 511.725 196.422C511.684 196.466 511.675 196.456 511.675 196.456C511.666 196.461 511.692 196.457 511.656 196.475L511.51 196.54C511.314 196.62 511.128 196.722 510.956 196.846C510.62 197.075 510.327 197.362 510.092 197.694C509.668 198.293 509.361 198.967 509.187 199.679C509.008 200.353 508.903 201.044 508.874 201.741L508.876 201.804L508.882 201.869C509.062 203.699 509.002 205.546 508.702 207.361C508.472 209.114 507.776 210.773 506.686 212.167C506.415 212.485 506.105 212.769 505.763 213.011L505.254 213.376L504.68 213.637C503.851 214.004 502.987 214.282 502.1 214.467C501.251 214.664 500.373 214.704 499.51 214.583C499.13 214.514 498.768 214.37 498.445 214.159C498.175 213.967 497.966 213.703 497.842 213.397L497.085 214.111C497.638 214.229 498.2 214.295 498.765 214.309C499.332 214.324 499.899 214.274 500.456 214.16C501.012 214.046 501.552 213.864 502.064 213.618C502.59 213.374 503.076 213.051 503.504 212.66L503.516 212.649C503.541 212.625 503.562 212.598 503.577 212.567C504.163 211.438 504.435 210.173 504.367 208.903C504.245 207.677 503.905 206.482 503.364 205.375C503.103 204.828 502.811 204.295 502.49 203.78C502.131 203.294 501.822 202.769 501.42 202.318C500.673 201.369 499.837 200.493 498.925 199.701C498.007 198.9 496.993 198.217 495.905 197.668C495.629 197.528 495.343 197.407 495.05 197.308C494.759 197.186 494.454 197.099 494.143 197.049C493.572 196.958 493.008 196.829 492.455 196.661C491.416 196.257 490.48 195.625 489.717 194.813C488.953 194.001 488.381 193.029 488.043 191.968C488.021 191.908 487.991 191.852 487.954 191.801C487.264 190.878 486.554 189.965 485.773 189.095C484.985 188.18 484.072 187.38 483.06 186.719C482.472 186.33 481.79 186.105 481.085 186.068C480.678 186.066 480.277 186.162 479.914 186.347C479.552 186.532 479.239 186.801 479.002 187.132C478.605 187.684 478.322 188.308 478.166 188.968C478.009 189.581 477.914 190.208 477.885 190.839L479.2 190.129C478.728 189.833 478.321 189.445 478.001 188.989C477.681 188.533 477.456 188.018 477.339 187.474C477.118 186.355 477.275 185.194 477.784 184.173C477.984 183.714 478.293 183.311 478.685 182.997C478.765 182.924 478.792 182.966 478.835 182.913C478.831 182.93 478.817 182.938 478.806 182.93C478.82 182.93 478.752 182.911 478.836 182.917L479.079 182.925C479.401 182.93 479.721 182.862 480.014 182.726C480.257 182.598 480.48 182.435 480.675 182.241C481.236 181.631 481.652 180.902 481.893 180.109C482.134 179.416 482.316 178.704 482.438 177.981L482.422 178.064C482.708 177.053 482.958 176.032 483.272 175.031C483.62 174.041 483.907 173.03 484.309 172.062C485.046 170.102 485.921 168.197 486.929 166.36C487.934 164.529 489.075 162.775 490.342 161.114C491.585 159.473 492.994 157.964 494.547 156.612L494.334 156.732L499.302 154.589L499.106 154.645L500.73 154.46C501.267 154.372 501.811 154.33 502.356 154.335C503.44 154.307 504.524 154.387 505.592 154.575C506.664 154.739 507.717 155.005 508.738 155.371C509.748 155.781 510.716 156.286 511.63 156.878C513.474 158.104 515.092 159.638 516.412 161.414C517.76 163.211 518.848 165.188 519.643 167.288L519.645 167.295C519.655 167.319 519.673 167.34 519.697 167.351C519.72 167.363 519.747 167.364 519.772 167.357C519.798 167.349 519.819 167.331 519.831 167.308C519.844 167.285 519.847 167.258 519.84 167.233C519.231 165.018 518.285 162.91 517.036 160.981C515.788 159.011 514.183 157.291 512.303 155.909C511.35 155.214 510.332 154.612 509.265 154.11C508.174 153.644 507.039 153.291 505.877 153.054C504.717 152.811 503.536 152.683 502.35 152.673C501.761 152.649 501.17 152.674 500.585 152.747L498.821 152.891C498.776 152.895 498.731 152.905 498.689 152.921L498.624 152.947L493.587 154.921C493.51 154.951 493.439 154.992 493.373 155.042C491.623 156.439 490.048 158.042 488.68 159.815C487.311 161.543 486.082 163.378 485.005 165.301C483.952 167.232 483.037 169.234 482.268 171.294C481.841 172.308 481.573 173.375 481.227 174.415C480.918 175.466 480.677 176.536 480.401 177.595L480.389 177.652L480.385 177.678C480.293 178.28 480.153 178.873 479.965 179.452C479.829 179.951 479.592 180.417 479.27 180.822C479.136 180.961 479.107 180.957 479.093 180.948L479.084 180.958C479.084 180.964 478.933 180.955 478.863 180.959C478.684 180.962 478.506 180.98 478.331 181.011C478.067 181.098 477.816 181.221 477.585 181.376C476.91 181.889 476.38 182.568 476.048 183.347C475.377 184.761 475.198 186.358 475.539 187.885C475.73 188.651 476.071 189.371 476.541 190.004C477.012 190.637 477.604 191.171 478.283 191.575L478.302 191.586C478.399 191.643 478.507 191.68 478.619 191.696C478.731 191.712 478.844 191.705 478.954 191.677C479.063 191.649 479.166 191.599 479.256 191.531C479.347 191.463 479.422 191.378 479.48 191.281C479.554 191.154 479.595 191.011 479.598 190.865C479.578 189.895 479.815 188.936 480.285 188.087C480.368 187.944 480.485 187.826 480.627 187.742C480.769 187.658 480.93 187.613 481.094 187.609C481.532 187.63 481.958 187.76 482.332 187.987C483.255 188.533 484.097 189.205 484.835 189.983C485.616 190.769 486.349 191.619 487.066 192.485L486.977 192.317C487.441 193.496 488.135 194.57 489.018 195.477C489.892 196.397 490.992 197.072 492.21 197.433C492.785 197.636 493.501 197.656 494 197.788C494.276 197.827 494.546 197.9 494.804 198.005C495.075 198.091 495.338 198.198 495.593 198.323C496.634 198.829 497.608 199.463 498.492 200.21C500.303 201.686 501.763 203.544 502.767 205.651C503.259 206.684 503.549 207.801 503.619 208.943C503.649 210.053 503.368 211.15 502.807 212.109L502.881 212.016C502.51 212.31 502.099 212.548 501.66 212.724C501.213 212.91 500.744 213.04 500.265 213.112C499.786 213.183 499.3 213.198 498.817 213.159C498.332 213.12 497.851 213.037 497.381 212.91L497.348 212.902C497.194 212.864 497.032 212.888 496.896 212.97C496.76 213.051 496.662 213.184 496.624 213.337C496.601 213.432 496.601 213.53 496.624 213.625C496.797 214.211 497.13 214.738 497.585 215.147C498.041 215.556 498.601 215.829 499.204 215.938C500.248 216.152 501.323 216.167 502.372 215.983C503.387 215.828 504.382 215.563 505.339 215.192L506.09 214.868C506.322 214.726 506.547 214.568 506.775 214.416C507.229 214.11 507.643 213.751 508.01 213.346C508.368 212.942 508.694 212.512 508.986 212.06C509.251 211.603 509.484 211.128 509.683 210.639C510.07 209.683 510.351 208.687 510.519 207.669C510.831 205.671 510.86 203.639 510.607 201.632L510.615 201.76C510.608 200.673 510.893 199.605 511.44 198.666C511.562 198.481 511.718 198.319 511.899 198.19C511.979 198.127 512.068 198.075 512.163 198.036C512.373 197.939 512.571 197.819 512.754 197.676C513.277 197.167 513.709 196.572 514.031 195.918C515.176 193.627 516.094 191.231 516.77 188.762C517.499 186.338 518.079 183.873 518.507 181.379C519.001 178.889 519.125 176.34 518.874 173.814C518.87 173.787 518.856 173.763 518.834 173.747C518.812 173.73 518.785 173.723 518.758 173.727C518.733 173.732 518.71 173.746 518.694 173.766C518.678 173.786 518.669 173.811 518.67 173.837ZM485.139 141.48C484.617 141.285 484.064 141.187 483.506 141.193C482.961 141.187 482.417 141.24 481.883 141.349C480.801 141.557 479.79 142.035 478.943 142.739C479.485 142.747 480.027 142.708 480.562 142.623C481.082 142.55 481.59 142.454 482.095 142.351C483.131 142.142 484.149 141.851 485.139 141.48ZM471.249 147.655C468.316 150.134 465.95 153.212 464.311 156.682C462.619 160.045 460.921 163.403 459.121 166.685C458.235 168.331 457.318 169.961 456.328 171.518C455.829 172.284 455.321 173.072 454.793 173.728C454.636 173.949 454.179 174.323 453.862 174.659C453.518 175.001 453.182 175.35 452.851 175.703C451.476 177.121 450.299 178.717 449.351 180.447C448.795 181.409 448.514 182.505 448.538 183.615C448.587 184.271 448.853 184.892 449.294 185.38C449.719 185.801 450.233 186.122 450.798 186.321C450.89 186.357 450.987 186.375 451.086 186.374C451.184 186.372 451.281 186.352 451.371 186.313C451.462 186.274 451.543 186.218 451.612 186.147C451.681 186.077 451.735 185.994 451.771 185.903C451.784 185.869 451.795 185.834 451.804 185.799C452.042 184.779 452.383 183.786 452.822 182.835C453.186 181.918 453.838 181.142 454.679 180.623C455.141 180.468 455.638 180.448 456.111 180.565C456.584 180.681 457.014 180.93 457.351 181.282C458.178 182 458.92 182.808 459.565 183.692C459.079 182.679 458.447 181.743 457.688 180.913C457.28 180.481 456.795 180.129 456.258 179.874C455.659 179.603 454.98 179.564 454.354 179.765C453.212 180.255 452.279 181.132 451.722 182.242C451.129 183.245 450.665 184.318 450.338 185.436L451.343 184.914C451.023 184.777 450.734 184.575 450.496 184.321C450.318 184.087 450.225 183.799 450.231 183.506C450.287 182.723 450.537 181.966 450.959 181.303C451.907 179.768 453.029 178.347 454.3 177.066C454.618 176.735 454.942 176.41 455.272 176.09C455.604 175.741 455.911 175.542 456.348 175.028C456.972 174.259 457.541 173.448 458.053 172.601C459.066 170.96 459.978 169.287 460.858 167.6C462.575 164.206 464.129 160.752 465.559 157.246C466.88 153.742 468.806 150.496 471.249 147.655Z" fill="black"/>
<path d="M451.074 185.612C449.716 186.885 448.429 188.212 447.161 189.554C445.902 190.902 444.65 192.257 443.446 193.648C442.231 195.031 441.03 196.424 439.867 197.847C438.681 199.251 437.534 200.687 436.401 202.133L436.732 201.817L428.309 207.584L419.909 213.393L413.864 217.822L412.356 220.596C412.356 220.596 418.36 217.284 421.297 215.528C424.213 213.738 427.127 211.946 429.972 210.052C432.826 208.167 435.668 206.278 438.457 204.288L438.481 204.27C438.597 204.186 438.701 204.086 438.789 203.972C439.902 202.511 441.002 201.04 442.062 199.537C443.146 198.054 444.191 196.54 445.223 195.017C446.265 193.501 447.26 191.949 448.247 190.391C449.226 188.826 450.185 187.246 451.074 185.612ZM462.847 205.666C460.948 208.163 458.85 210.503 456.574 212.663C454.344 214.81 451.927 216.753 449.35 218.471C446.797 220.218 444.088 221.726 441.257 222.975C439.859 223.662 438.388 224.167 436.923 224.734C436.191 225.022 435.446 225.274 434.689 225.487C433.937 225.724 433.183 225.977 432.427 226.246C433.219 226.193 434.014 226.126 434.81 226.042C435.609 225.98 436.403 225.867 437.188 225.704C438.769 225.406 440.325 224.991 441.844 224.462C443.378 223.954 444.874 223.338 446.321 222.619C447.063 222.293 447.732 221.833 448.442 221.446C449.152 221.058 449.84 220.631 450.501 220.165C451.155 219.689 451.838 219.252 452.465 218.742L454.339 217.206C455.536 216.124 456.668 214.973 457.73 213.759C459.874 211.364 461.604 208.629 462.847 205.666ZM523.216 222.735C522.73 223.301 522.343 223.943 522.068 224.635C521.806 225.279 521.613 225.95 521.494 226.635C521.372 227.319 521.325 228.015 521.353 228.71C521.376 229.455 521.525 230.19 521.792 230.886C522.28 230.322 522.669 229.68 522.943 228.987C523.205 228.343 523.397 227.672 523.514 226.986C523.634 226.301 523.68 225.606 523.652 224.911C523.628 224.166 523.481 223.431 523.216 222.735ZM524.471 230.933C527.111 236.779 529.128 242.886 530.489 249.153C531.89 255.394 532.625 261.767 532.681 268.163C532.712 271.351 532.527 274.537 532.125 277.7C530.977 287.197 527.706 296.315 522.554 304.381L522.55 304.387C522.492 304.481 522.453 304.587 522.438 304.696C522.423 304.806 522.431 304.918 522.462 305.025C525.769 316.318 529.169 327.581 532.662 338.811C536.123 350.055 539.785 361.236 543.538 372.388C547.276 383.546 551.262 394.619 555.495 405.61C557.631 411.096 559.831 416.56 562.252 421.937C563.464 424.624 564.73 427.29 566.137 429.893C566.836 431.196 567.583 432.478 568.409 433.719C569.202 435.029 570.228 436.184 571.436 437.126L571.414 436.464C568.319 438.56 565.103 440.472 561.783 442.191C558.475 443.949 555.077 445.538 551.642 447.038C544.756 450.014 537.679 452.53 530.458 454.569C516.005 458.628 501.137 461.036 486.14 461.747C471.16 462.453 456.146 461.677 441.319 459.431C426.503 457.183 411.896 453.734 397.642 449.116L398.268 450.403L414.231 407.669L430.066 364.887L445.766 322.055L461.354 279.181L461.356 279.174C461.379 279.11 461.389 279.042 461.386 278.973L460.34 258.949L459.85 248.935C459.702 245.597 459.544 242.258 459.479 238.92C459.479 238.906 459.477 238.893 459.472 238.881C459.466 238.868 459.459 238.857 459.449 238.848C459.44 238.838 459.428 238.831 459.416 238.825C459.403 238.82 459.39 238.818 459.377 238.818C459.35 238.818 459.324 238.829 459.305 238.848C459.286 238.867 459.275 238.893 459.274 238.92C459.263 242.266 459.346 245.608 459.417 248.95L459.679 258.975C459.867 265.658 460.084 272.34 460.329 279.021L460.361 278.814L444.189 321.471L428.129 364.17L412.205 406.919L396.407 449.715C396.362 449.836 396.34 449.966 396.345 450.095C396.349 450.225 396.379 450.352 396.433 450.47C396.487 450.589 396.564 450.695 396.659 450.783C396.754 450.872 396.865 450.941 396.987 450.986L397.034 451.002C411.402 455.605 426.143 458.962 441.09 461.034C456.03 463.121 471.141 463.726 486.201 462.84C501.247 461.901 516.148 459.348 530.647 455.224C537.877 453.12 544.975 450.589 551.904 447.645C555.363 446.16 558.785 444.585 562.122 442.838C565.486 441.122 568.744 439.21 571.882 437.111C571.934 437.075 571.977 437.028 572.007 436.972C572.036 436.917 572.052 436.855 572.053 436.792C572.054 436.729 572.039 436.667 572.01 436.611C571.982 436.554 571.94 436.506 571.889 436.469L571.86 436.449C570.756 435.562 569.824 434.481 569.109 433.259C568.324 432.04 567.607 430.768 566.937 429.469C565.586 426.877 564.369 424.208 563.205 421.517C560.879 416.132 558.771 410.649 556.721 405.146C552.633 394.133 548.919 382.982 545.184 371.839C541.475 360.687 537.935 349.479 534.359 338.281C530.813 327.075 527.35 315.842 523.97 304.583L523.877 305.227C527.362 299.722 529.961 293.706 531.58 287.398C532.402 284.261 532.986 281.066 533.328 277.84C533.689 274.623 533.831 271.385 533.753 268.149C533.606 261.689 532.731 255.265 531.143 249C529.624 242.736 527.449 236.649 524.653 230.84C524.642 230.815 524.621 230.797 524.595 230.788C524.57 230.779 524.542 230.78 524.517 230.792C524.493 230.803 524.474 230.824 524.465 230.849C524.456 230.875 524.457 230.903 524.468 230.927L524.471 230.933Z" fill="black"/>
<path d="M501.247 229.281L524.562 230.886C524.562 230.886 531.896 246.472 531.404 251.729C531.404 251.729 503.342 233.834 501.247 229.281ZM460.854 278.995C461.911 277.854 462.862 276.62 463.695 275.308C464.526 274.028 465.306 272.717 466.014 271.365C466.721 270.014 467.357 268.621 467.932 267.197C468.532 265.767 469.006 264.286 469.348 262.773C468.305 263.921 467.361 265.154 466.526 266.46C465.685 267.74 464.909 269.058 464.198 270.413C463.483 271.764 462.839 273.152 462.269 274.571C461.669 276.001 461.195 277.482 460.854 278.995C460.854 278.995 459.376 246.03 459.376 238.923L461.756 238.8C464.618 239.773 475.831 236.158 475.831 236.158C496.881 310.137 528.364 294.899 528.364 294.899L523.214 304.802C521.111 307.013 519.173 309.348 517.285 311.714C515.397 314.08 513.602 316.507 511.828 318.954C510.073 321.422 508.35 323.911 506.729 326.461C505.088 329.001 503.508 331.591 502.092 334.295C504.206 332.083 506.144 329.758 508.032 327.393C509.919 325.027 511.715 322.59 513.489 320.142C515.233 317.674 516.957 315.196 518.588 312.636C520.219 310.096 521.799 307.505 523.214 304.802C523.214 304.802 559.826 429.411 571.644 436.785C571.644 436.785 505.17 484.712 397.334 450.057L460.854 278.995ZM564.33 438.249C564.729 438.236 565.108 438.068 565.386 437.782C565.663 437.495 565.819 437.112 565.819 436.713C565.819 436.314 565.663 435.931 565.386 435.644C565.108 435.358 564.729 435.19 564.33 435.177C563.931 435.19 563.552 435.358 563.274 435.644C562.996 435.931 562.841 436.314 562.841 436.713C562.841 437.112 562.996 437.495 563.274 437.782C563.552 438.068 563.931 438.236 564.33 438.249ZM556.205 442.305C556.605 442.291 556.983 442.124 557.261 441.837C557.539 441.55 557.694 441.167 557.694 440.768C557.694 440.37 557.539 439.986 557.261 439.7C556.983 439.413 556.605 439.245 556.205 439.232C555.806 439.245 555.428 439.413 555.15 439.7C554.872 439.986 554.717 440.37 554.717 440.768C554.717 441.167 554.872 441.55 555.15 441.837C555.428 442.124 555.806 442.291 556.205 442.305ZM548.081 445.991C548.48 445.978 548.859 445.81 549.136 445.524C549.414 445.237 549.569 444.854 549.569 444.455C549.569 444.056 549.414 443.673 549.136 443.386C548.859 443.1 548.48 442.932 548.081 442.919C547.681 442.932 547.303 443.1 547.025 443.387C546.748 443.673 546.592 444.056 546.592 444.455C546.592 444.854 546.748 445.237 547.025 445.524C547.303 445.81 547.681 445.978 548.081 445.991ZM538.11 449.678C538.509 449.665 538.887 449.497 539.165 449.21C539.443 448.924 539.598 448.541 539.598 448.142C539.598 447.743 539.443 447.36 539.165 447.073C538.887 446.786 538.509 446.619 538.11 446.606C537.71 446.619 537.332 446.787 537.054 447.073C536.777 447.36 536.621 447.743 536.621 448.142C536.621 448.54 536.777 448.924 537.054 449.21C537.332 449.497 537.71 449.665 538.11 449.678ZM527.03 452.627C527.43 452.614 527.808 452.446 528.086 452.16C528.364 451.873 528.519 451.49 528.519 451.091C528.519 450.692 528.364 450.309 528.086 450.022C527.808 449.736 527.43 449.568 527.03 449.555C526.631 449.568 526.253 449.736 525.975 450.023C525.698 450.309 525.542 450.692 525.542 451.091C525.542 451.49 525.698 451.873 525.975 452.16C526.253 452.446 526.631 452.614 527.03 452.627ZM515.582 455.208C515.981 455.195 516.36 455.027 516.638 454.74C516.915 454.454 517.071 454.071 517.071 453.672C517.071 453.273 516.915 452.89 516.638 452.603C516.36 452.317 515.981 452.149 515.582 452.136C515.183 452.149 514.805 452.317 514.527 452.603C514.249 452.89 514.094 453.273 514.094 453.672C514.094 454.071 514.249 454.454 514.527 454.74C514.805 455.027 515.183 455.195 515.582 455.208ZM504.503 457.051C504.902 457.038 505.281 456.87 505.559 456.584C505.837 456.297 505.992 455.914 505.992 455.515C505.992 455.116 505.837 454.733 505.559 454.446C505.281 454.16 504.902 453.992 504.503 453.979C504.104 453.992 503.725 454.16 503.448 454.447C503.17 454.733 503.015 455.116 503.015 455.515C503.015 455.914 503.17 456.297 503.448 456.584C503.725 456.87 504.104 457.038 504.503 457.051ZM493.793 458.157C494.193 458.144 494.571 457.977 494.849 457.69C495.127 457.403 495.282 457.02 495.282 456.621C495.282 456.222 495.127 455.839 494.849 455.552C494.571 455.266 494.193 455.098 493.793 455.085C493.394 455.098 493.016 455.266 492.738 455.553C492.46 455.839 492.305 456.222 492.305 456.621C492.305 457.02 492.46 457.403 492.738 457.69C493.016 457.976 493.394 458.144 493.793 458.157ZM483.822 458.895C484.221 458.881 484.6 458.714 484.878 458.427C485.156 458.141 485.311 457.757 485.311 457.358C485.311 456.96 485.156 456.576 484.878 456.29C484.6 456.003 484.221 455.836 483.822 455.822C483.423 455.836 483.045 456.003 482.767 456.29C482.489 456.577 482.334 456.96 482.334 457.358C482.334 457.757 482.489 458.14 482.767 458.427C483.045 458.714 483.423 458.881 483.822 458.895ZM473.112 458.895C473.512 458.881 473.89 458.714 474.168 458.427C474.446 458.141 474.601 457.757 474.601 457.358C474.601 456.96 474.446 456.576 474.168 456.29C473.89 456.003 473.512 455.836 473.112 455.822C472.713 455.836 472.335 456.003 472.057 456.29C471.779 456.577 471.624 456.96 471.624 457.358C471.624 457.757 471.779 458.14 472.057 458.427C472.335 458.714 472.713 458.881 473.112 458.895ZM462.772 458.526C463.171 458.513 463.55 458.345 463.828 458.059C464.105 457.772 464.261 457.389 464.261 456.99C464.261 456.591 464.105 456.208 463.828 455.921C463.55 455.635 463.171 455.467 462.772 455.454C462.373 455.467 461.994 455.635 461.717 455.921C461.439 456.208 461.284 456.591 461.284 456.99C461.284 457.388 461.439 457.772 461.717 458.058C461.994 458.345 462.373 458.513 462.772 458.526ZM452.432 457.789C452.831 457.775 453.209 457.608 453.487 457.321C453.765 457.034 453.92 456.651 453.92 456.252C453.92 455.854 453.765 455.47 453.487 455.184C453.209 454.897 452.831 454.729 452.432 454.716C452.032 454.73 451.654 454.897 451.376 455.184C451.098 455.47 450.943 455.854 450.943 456.252C450.943 456.651 451.098 457.034 451.376 457.321C451.654 457.608 452.032 457.775 452.432 457.789ZM442.46 457.051C442.86 457.038 443.238 456.87 443.516 456.584C443.794 456.297 443.949 455.914 443.949 455.515C443.949 455.116 443.794 454.733 443.516 454.446C443.238 454.16 442.86 453.992 442.46 453.979C442.061 453.992 441.683 454.16 441.405 454.447C441.127 454.733 440.972 455.116 440.972 455.515C440.972 455.914 441.127 456.297 441.405 456.584C441.683 456.87 442.061 457.038 442.46 457.051ZM432.489 455.208C432.888 455.195 433.267 455.027 433.545 454.74C433.823 454.454 433.978 454.071 433.978 453.672C433.978 453.273 433.823 452.89 433.545 452.603C433.267 452.317 432.888 452.149 432.489 452.136C432.09 452.149 431.712 452.317 431.434 452.603C431.156 452.89 431.001 453.273 431.001 453.672C431.001 454.071 431.156 454.454 431.434 454.74C431.712 455.027 432.09 455.195 432.489 455.208ZM422.149 452.996C422.548 452.983 422.927 452.815 423.204 452.528C423.482 452.242 423.637 451.859 423.637 451.46C423.637 451.061 423.482 450.678 423.204 450.391C422.927 450.104 422.548 449.937 422.149 449.924C421.75 449.937 421.371 450.105 421.094 450.391C420.816 450.678 420.661 451.061 420.661 451.46C420.661 451.858 420.816 452.242 421.094 452.528C421.371 452.815 421.75 452.983 422.149 452.996ZM412.916 450.415C413.316 450.402 413.694 450.234 413.972 449.948C414.25 449.661 414.405 449.278 414.405 448.879C414.405 448.48 414.25 448.097 413.972 447.81C413.694 447.524 413.316 447.356 412.916 447.343C412.517 447.356 412.139 447.524 411.861 447.811C411.583 448.097 411.428 448.48 411.428 448.879C411.428 449.278 411.583 449.661 411.861 449.948C412.139 450.234 412.517 450.402 412.916 450.415ZM403.314 447.097C403.714 447.084 404.092 446.916 404.37 446.63C404.648 446.343 404.803 445.96 404.803 445.561C404.803 445.162 404.648 444.779 404.37 444.492C404.092 444.206 403.714 444.038 403.314 444.025C402.915 444.038 402.537 444.206 402.259 444.493C401.981 444.779 401.826 445.162 401.826 445.561C401.826 445.96 401.981 446.343 402.259 446.63C402.537 446.916 402.915 447.084 403.314 447.097ZM478.338 112.037C478.039 112.026 477.755 111.9 477.547 111.685C477.339 111.47 477.223 111.183 477.223 110.884C477.223 110.586 477.339 110.299 477.547 110.084C477.755 109.869 478.039 109.743 478.338 109.732C478.637 109.743 478.92 109.869 479.128 110.084C479.336 110.299 479.453 110.586 479.453 110.884C479.453 111.183 479.336 111.47 479.128 111.685C478.92 111.9 478.637 112.026 478.338 112.037ZM481.538 105.908C481.126 105.445 480.598 105.099 480.009 104.907C479.453 104.716 478.865 104.642 478.279 104.687C477.66 104.724 477.059 104.915 476.533 105.243C476.242 105.407 475.993 105.635 475.805 105.91C475.616 106.185 475.493 106.499 475.445 106.829C475.979 106.767 476.516 106.746 477.053 106.768C477.511 106.764 477.967 106.767 478.436 106.729C478.929 106.69 479.418 106.616 479.9 106.508C480.47 106.38 481.021 106.178 481.538 105.908Z" fill="black"/>
<path d="M476.738 119.733C476.738 119.733 473.71 122.66 471.254 121.381" stroke="black" stroke-width="0.968" stroke-linecap="round" stroke-linejoin="round"/>
<path d="M531.344 251.432C528.137 248.99 524.901 246.629 521.67 244.268C518.452 241.889 515.23 239.532 512.066 237.106C510.475 235.905 508.901 234.685 507.36 233.427C506.567 232.823 505.803 232.188 505.048 231.544C504.302 230.89 503.5 230.291 502.775 229.617C499.688 227.099 496.955 224.178 494.649 220.932C495.071 221.833 495.452 222.791 495.966 223.667C496.519 224.511 497.066 225.378 497.662 226.203L499.589 228.565C500.264 229.321 500.979 230.038 501.675 230.778C504.539 233.634 507.595 236.291 510.821 238.732C514.047 241.154 517.352 243.463 520.775 245.586C524.182 247.737 527.711 249.689 531.344 251.432ZM469.351 158.5C467.765 161.318 466.258 164.185 464.898 167.125C463.532 170.061 462.254 173.045 461.174 176.113C460.022 179.182 459.247 182.38 458.864 185.635C458.663 187.325 458.786 189.037 459.226 190.68C459.494 191.547 459.941 192.348 460.538 193.031C461.185 193.697 461.981 194.201 462.861 194.5L462.37 193.798C462.193 196.585 461.968 199.383 461.672 202.157C461.523 203.544 461.354 204.929 461.138 206.292C461.027 206.972 460.918 207.652 460.77 208.304C460.697 208.628 460.616 208.948 460.521 209.237C460.479 209.367 460.43 209.494 460.372 209.618C460.333 209.733 460.246 209.765 460.39 209.675L460.506 211.227L465.38 213.367C465.533 213.434 465.701 213.457 465.867 213.434C466.032 213.411 466.187 213.343 466.316 213.237C466.445 213.131 466.541 212.992 466.595 212.834C466.649 212.677 466.658 212.507 466.621 212.345L466.618 212.329C465.934 209.239 465.468 206.104 465.222 202.949C465.007 199.781 464.937 196.604 465.011 193.415C465.111 190.232 465.277 187.046 465.599 183.87C465.894 180.693 466.241 177.517 466.7 174.353C467.586 168.023 468.781 161.729 470.201 155.49C470.917 152.39 471.687 149.224 472.567 146.245C472.909 144.875 473.71 143.664 474.839 142.813C475.429 142.542 476.084 142.447 476.727 142.539C477.37 142.632 477.973 142.908 478.462 143.335L478.401 143.281L478.411 143.291L478.323 142.314C476.304 145.461 474.932 148.978 474.287 152.659C473.611 156.272 473.333 159.948 473.458 163.621C473.575 167.269 473.933 170.905 474.53 174.506C475.099 178.1 475.897 181.654 476.922 185.146C476.108 181.611 475.484 178.034 475.05 174.433C474.604 170.844 474.396 167.229 474.426 163.613C474.418 160.019 474.785 156.433 475.522 152.915C476.218 149.436 477.598 146.129 479.583 143.186C479.684 143.04 479.732 142.864 479.718 142.687C479.703 142.51 479.627 142.344 479.503 142.217L479.495 142.209L479.485 142.198C479.466 142.179 479.445 142.161 479.424 142.144C478.693 141.559 477.836 141.154 476.92 140.961C475.941 140.754 474.921 140.899 474.038 141.369C472.506 142.376 471.397 143.908 470.918 145.676C469.95 148.848 469.183 151.926 468.425 155.077C466.942 161.353 465.685 167.683 464.738 174.07C463.741 180.46 463.176 186.91 463.049 193.377C462.998 196.615 463.097 199.856 463.344 203.099C463.623 206.349 464.131 209.574 464.863 212.752L466.1 211.714L461.209 209.614L461.324 211.166C461.602 210.966 461.82 210.694 461.955 210.38C462.045 210.185 462.123 209.985 462.187 209.78C462.308 209.401 462.395 209.038 462.474 208.677C462.627 207.957 462.746 207.25 462.839 206.541C463.028 205.126 463.164 203.718 463.28 202.309C463.51 199.492 463.666 196.685 463.776 193.864C463.782 193.712 463.739 193.563 463.654 193.438C463.569 193.312 463.446 193.217 463.303 193.167L463.285 193.161C462.623 192.951 462.019 192.591 461.519 192.109C461.04 191.579 460.676 190.957 460.45 190.281C460.024 188.803 459.881 187.258 460.028 185.726C460.343 182.55 461.003 179.417 461.996 176.383C463.993 170.246 466.451 164.267 469.351 158.5ZM528.369 294.895C524.946 296.147 521.249 296.451 517.668 295.775C515.902 295.477 514.176 294.978 512.524 294.287C511.688 293.975 510.904 293.533 510.094 293.166C509.327 292.706 508.527 292.307 507.79 291.8C501.792 287.868 497.118 282.182 493.235 276.12C489.407 269.946 486.114 263.459 483.39 256.727C480.613 249.992 478.164 243.105 475.826 236.156C477.358 243.339 479.388 250.407 481.9 257.31C484.394 264.265 487.614 270.94 491.507 277.222C493.511 280.358 495.78 283.315 498.29 286.063C500.832 288.819 503.748 291.206 506.953 293.155C510.174 295.115 513.786 296.347 517.535 296.765C519.395 296.951 521.271 296.894 523.117 296.596C524.95 296.323 526.724 295.748 528.369 294.895ZM418.368 208.533C418.262 208.442 418.227 208.689 418.13 208.803L417.895 209.223L417.433 210.068L416.536 211.772C415.952 212.914 415.383 214.064 414.829 215.221C413.719 217.535 412.678 219.88 411.677 222.242C409.68 226.968 407.861 231.764 406.218 236.63C402.943 246.361 400.286 256.289 398.261 266.353C396.23 276.421 394.798 286.6 393.973 296.837C393.153 307.078 392.903 317.358 393.225 327.627L393.958 326.853L308.92 328.283L309.512 328.488C307.117 326.586 304.603 324.838 301.986 323.255C299.377 321.658 296.663 320.238 293.863 319.004C291.041 317.752 288.103 316.78 285.091 316.102C282.025 315.407 278.867 315.203 275.737 315.498L277.057 316.568C275.381 296.942 273.892 277.3 272.59 257.64C271.954 247.814 271.368 237.985 270.913 228.16C270.693 223.248 270.509 218.335 270.434 213.435C270.405 210.987 270.373 208.539 270.432 206.114C270.461 204.904 270.509 203.695 270.609 202.523C270.66 201.939 270.724 201.36 270.817 200.831C270.857 200.595 270.911 200.361 270.978 200.132C271.006 200.043 271.035 199.976 271.04 199.961C271.003 199.974 271.08 200.062 270.564 200.339L269.99 200.463C276.629 200.29 283.294 200.207 289.946 200.186C296.6 200.152 303.255 200.16 309.903 200.297C316.55 200.435 323.196 200.669 329.804 201.171C333.106 201.426 336.402 201.747 339.648 202.243C341.268 202.494 342.88 202.785 344.436 203.182C345.892 203.474 347.279 204.041 348.521 204.853L348.579 204.901C348.759 205.049 348.981 205.135 349.214 205.146L418.368 208.533ZM418.64 208.39L384.296 205.62L349.36 202.884L350.052 203.177C348.567 202.063 346.858 201.284 345.042 200.894C343.373 200.445 341.705 200.123 340.036 199.841C336.698 199.287 333.358 198.917 330.019 198.615C323.339 198.019 316.658 197.696 309.979 197.469C296.617 197.017 283.272 197.02 269.905 197.311L269.821 197.312C269.65 197.317 269.483 197.359 269.331 197.435C268.857 197.648 268.473 198.021 268.246 198.487C268.134 198.708 268.039 198.937 267.965 199.173C267.854 199.534 267.766 199.9 267.701 200.271C267.58 200.955 267.508 201.602 267.449 202.244C267.335 203.527 267.282 204.781 267.247 206.032C267.182 208.533 267.185 211.014 267.239 213.491C267.342 218.444 267.554 223.378 267.801 228.308C268.298 238.168 268.973 248.008 269.706 257.841C271.175 277.508 272.883 297.145 274.694 316.781C274.707 316.936 274.751 317.086 274.823 317.224C274.895 317.361 274.993 317.483 275.112 317.583C275.231 317.683 275.369 317.758 275.517 317.805C275.665 317.851 275.821 317.868 275.976 317.855L276.014 317.851C278.892 317.539 281.802 317.686 284.634 318.285C287.516 318.889 290.331 319.774 293.039 320.927C295.773 322.083 298.426 323.42 300.981 324.93C303.543 326.427 306.009 328.085 308.362 329.892L308.382 329.907C308.545 330.034 308.747 330.101 308.954 330.097L393.986 328.345C394.084 328.343 394.18 328.323 394.27 328.284C394.36 328.245 394.441 328.189 394.509 328.119C394.577 328.049 394.631 327.966 394.667 327.876C394.703 327.785 394.721 327.688 394.719 327.59L394.719 327.571C394.3 317.356 394.45 307.126 395.167 296.928C395.891 286.725 397.22 276.573 399.145 266.527C401.067 256.475 403.621 246.553 406.791 236.821C408.386 231.958 410.155 227.157 412.098 222.417C413.073 220.052 414.09 217.702 415.175 215.384C415.715 214.224 416.271 213.072 416.843 211.927L417.721 210.221L418.173 209.376L418.403 208.955C418.464 208.791 418.584 208.758 418.64 208.39Z" fill="black"/>
<path d="M324.365 212.541C321.89 221.836 319.696 231.2 317.783 240.632C315.833 250.052 314.124 259.519 312.654 269.034C311.224 278.551 310.002 288.11 309.332 297.726C308.978 302.53 308.795 307.353 308.841 312.176C308.834 317 309.287 321.813 310.194 326.552C309.683 321.782 309.567 316.979 309.846 312.191C310.04 307.406 310.438 302.629 310.927 297.862C311.917 288.33 313.221 278.825 314.681 269.343C316.112 259.856 317.725 250.393 319.35 240.928L324.365 212.541ZM400.568 207.309C402.065 206.142 403.236 204.611 403.971 202.862C404.705 201.113 404.977 199.205 404.761 197.321C404.531 195.319 403.821 193.403 402.691 191.733C402.399 191.317 402.08 190.915 401.753 190.519C401.4 190.163 401.022 189.77 400.676 189.447C400.005 188.839 399.332 188.229 398.633 187.651C395.846 185.291 392.858 183.177 389.705 181.333C388.12 180.404 386.478 179.565 384.798 178.791C383.954 178.411 383.1 178.054 382.234 177.719C381.824 177.544 381.312 177.392 380.841 177.234C380.366 177.064 379.88 176.926 379.386 176.82C375.437 175.879 371.293 176.16 367.507 177.626C363.773 179.078 360.572 181.635 358.333 184.953C357.786 185.762 357.299 186.61 356.874 187.488L355.761 189.902L353.588 194.757C352.203 198.028 350.802 201.292 349.608 204.667C351.804 201.837 353.794 198.895 355.799 195.961L358.712 191.509L360.142 189.268C360.581 188.605 361.057 187.968 361.567 187.358C363.577 184.969 366.21 183.18 369.174 182.189C370.627 181.706 372.141 181.43 373.671 181.37C375.192 181.279 376.718 181.423 378.194 181.798C378.568 181.871 378.935 181.971 379.294 182.098C379.662 182.22 380.005 182.303 380.412 182.472C381.201 182.763 381.979 183.091 382.76 183.412C384.322 184.058 385.848 184.805 387.365 185.578C390.411 187.162 393.362 188.922 396.204 190.848L398.34 192.322L399.242 193.016C399.505 193.277 399.795 193.52 400.056 193.792C401.106 194.927 401.874 196.293 402.299 197.779C402.755 199.394 402.836 201.092 402.536 202.744C402.236 204.395 401.563 205.957 400.568 207.309Z" fill="black"/>
<path d="M350.149 203.872C349.604 200.84 348.696 197.885 347.444 195.07C346.208 192.202 344.671 189.473 342.859 186.928C341.003 184.345 338.843 181.993 336.425 179.924C333.954 177.831 331.198 176.096 328.24 174.772L327.114 174.303C326.721 174.132 326.319 173.981 325.911 173.851C324.984 173.541 324.018 173.36 323.042 173.313C321.04 173.207 319.05 173.683 317.315 174.685C315.604 175.665 314.181 177.076 313.188 178.778C312.195 180.479 311.668 182.411 311.658 184.381C311.679 186.396 312.3 188.361 313.442 190.023C314.515 191.507 315.868 192.766 317.425 193.731C320.214 195.451 323.272 196.692 326.471 197.401L326.158 197.28L331.792 199.657L337.474 201.937L337.644 202.005C337.667 202.014 337.692 202.021 337.718 202.026C339.96 202.417 342.194 202.755 344.293 203.03C346.393 203.299 348.344 203.562 350.149 203.872ZM350.149 203.872C347.917 203.148 345.832 202.377 343.896 201.612C341.959 200.854 340.157 200.158 338.363 199.515L338.606 199.604L333.294 196.564L327.935 193.622C327.906 193.606 327.876 193.592 327.845 193.581L327.621 193.501C324.957 192.631 322.428 191.394 320.107 189.825C319.113 189.139 318.251 188.28 317.56 187.29C317.002 186.421 316.714 185.406 316.734 184.374C316.771 183.301 317.078 182.256 317.624 181.332C318.171 180.409 318.941 179.637 319.864 179.087C320.548 178.686 321.308 178.432 322.096 178.339C322.883 178.247 323.681 178.319 324.44 178.551C324.68 178.601 325.057 178.763 325.375 178.868L326.367 179.223C331.689 181.39 336.446 184.738 340.277 189.015C344.291 193.448 347.619 198.456 350.149 203.872ZM509.79 115.377C512.235 117.518 514.336 120.021 516.019 122.8C517.692 125.539 519.075 128.443 520.147 131.467L520.949 133.74L521.593 136.069C522.111 137.601 522.312 139.213 522.732 140.782C523.049 142.372 523.287 143.982 523.601 145.59C523.818 147.209 524.018 148.836 524.317 150.474C524.473 148.83 524.543 147.175 524.606 145.512C524.525 143.86 524.502 142.19 524.313 140.535C523.95 137.205 523.199 133.927 522.075 130.77C520.94 127.595 519.341 124.605 517.332 121.896C515.368 119.16 512.784 116.926 509.79 115.377ZM334.668 378.18C331.452 393.24 328.849 408.398 326.397 423.58C325.205 431.176 324.038 438.776 322.989 446.395C321.912 454.01 320.966 461.645 320.151 469.301C321.754 461.77 323.227 454.218 324.57 446.646C325.941 439.078 327.194 431.492 328.422 423.901C330.809 408.709 333.045 393.493 334.668 378.18Z" fill="black"/>
<path d="M393.805 415.025C388.776 414.088 383.741 413.257 378.7 412.53L371.137 411.46L363.567 410.515C353.471 409.29 343.363 408.259 333.244 407.424C328.188 406.941 323.124 406.608 318.06 406.264C312.995 405.936 307.935 405.512 302.863 405.302L287.655 404.541L272.431 404.058L273.453 404.253C269.268 402.98 265.03 401.868 260.821 400.668C256.616 399.456 252.364 398.386 248.125 397.276C243.896 396.137 239.611 395.165 235.352 394.118L228.921 392.671C226.774 392.199 224.607 391.787 222.451 391.342L222.423 391.336C222.359 391.323 222.293 391.335 222.237 391.369C222.182 391.403 222.141 391.457 222.124 391.52C222.107 391.583 222.115 391.65 222.146 391.707C222.177 391.764 222.228 391.808 222.29 391.828L272.063 408.443C272.097 408.454 272.132 408.461 272.168 408.463L302.562 410.359L332.965 412.102L393.774 415.536C393.839 415.539 393.903 415.518 393.953 415.477C394.002 415.435 394.034 415.376 394.042 415.312C394.05 415.247 394.033 415.182 393.995 415.13C393.956 415.078 393.899 415.042 393.836 415.03L393.805 415.025ZM389.675 440.552C384.533 440.093 379.395 439.729 374.261 439.494L366.56 439.149L358.864 438.925C348.604 438.666 338.351 438.607 328.105 438.746C322.979 438.742 317.86 438.928 312.74 439.054C307.619 439.192 302.497 439.295 297.382 439.568L282.031 440.282L266.69 441.267L268.297 441.544L256.292 437.399C252.302 435.99 248.242 434.755 244.218 433.431C240.198 432.096 236.109 430.935 232.058 429.678L225.927 427.928L219.753 426.288L219.725 426.28C219.662 426.263 219.595 426.271 219.538 426.302C219.48 426.333 219.437 426.384 219.416 426.446C219.396 426.508 219.4 426.575 219.427 426.634C219.455 426.693 219.504 426.739 219.564 426.763L266.683 445.601C266.736 445.621 266.792 445.631 266.848 445.63L297.564 444.616C307.803 444.284 318.038 443.837 328.275 443.454L389.694 441.064C389.759 441.061 389.821 441.034 389.867 440.988C389.913 440.942 389.939 440.88 389.941 440.815C389.942 440.75 389.919 440.687 389.876 440.639C389.832 440.59 389.772 440.56 389.707 440.555L389.675 440.552ZM403.68 300.587C395.996 299.761 388.33 299.342 380.67 299.084L374.925 298.89L369.186 298.81C365.36 298.767 361.532 298.688 357.711 298.761L346.244 298.892L334.788 299.259C330.968 299.348 327.153 299.571 323.338 299.782C319.524 300.004 315.706 300.163 311.894 300.437L313.362 300.624L300.005 297.045C295.52 295.96 291.054 294.81 286.553 293.778C282.043 292.774 277.543 291.737 272.993 290.862C270.729 290.388 268.45 289.967 266.164 289.565C263.885 289.142 261.588 288.776 259.282 288.441L259.245 288.435C259.181 288.426 259.117 288.441 259.064 288.477C259.011 288.514 258.974 288.569 258.959 288.631C258.945 288.693 258.955 288.759 258.987 288.815C259.019 288.87 259.071 288.911 259.132 288.931L285.527 297.132L311.946 305.252C311.997 305.268 312.051 305.275 312.104 305.273L335.007 304.315L357.907 303.27L380.806 302.226L403.702 301.098C403.766 301.095 403.827 301.068 403.872 301.022C403.917 300.976 403.943 300.915 403.945 300.851C403.947 300.787 403.924 300.725 403.882 300.677C403.84 300.628 403.781 300.598 403.717 300.591L403.68 300.587Z" fill="black"/>
<path d="M262.633 502.04C255.501 502.04 249.719 496.268 249.719 489.148C249.719 482.028 255.501 476.256 262.633 476.256C269.765 476.256 275.547 482.028 275.547 489.148C275.547 496.268 269.765 502.04 262.633 502.04Z" fill="black"/>
<path d="M398.78 477.082C399.047 477 399.303 476.918 399.56 476.836C399.281 476.84 399.01 476.925 398.78 477.082Z" fill="white"/>
<path d="M525.188 292.992C524.789 292.978 524.411 292.811 524.133 292.524C523.856 292.237 523.701 291.855 523.701 291.456C523.701 291.058 523.856 290.675 524.133 290.388C524.411 290.102 524.789 289.934 525.188 289.92C525.586 289.934 525.964 290.102 526.242 290.388C526.519 290.675 526.674 291.058 526.674 291.456C526.674 291.855 526.519 292.237 526.242 292.524C525.964 292.811 525.586 292.978 525.188 292.992ZM516.324 292.255C515.926 292.241 515.548 292.073 515.27 291.787C514.993 291.5 514.838 291.117 514.838 290.719C514.838 290.32 514.993 289.937 515.27 289.651C515.548 289.364 515.926 289.196 516.324 289.183C516.723 289.196 517.101 289.364 517.379 289.651C517.656 289.937 517.811 290.32 517.811 290.719C517.811 291.117 517.656 291.5 517.379 291.787C517.101 292.073 516.723 292.241 516.324 292.255ZM507.461 286.725C507.062 286.711 506.684 286.543 506.407 286.257C506.13 285.97 505.975 285.587 505.975 285.189C505.975 284.79 506.13 284.407 506.407 284.121C506.684 283.834 507.062 283.666 507.461 283.653C507.86 283.666 508.238 283.834 508.515 284.121C508.793 284.407 508.948 284.79 508.948 285.189C508.948 285.587 508.793 285.97 508.515 286.257C508.238 286.543 507.86 286.711 507.461 286.725ZM498.598 277.508C498.199 277.494 497.821 277.327 497.544 277.04C497.267 276.753 497.112 276.371 497.112 275.972C497.112 275.574 497.267 275.191 497.544 274.904C497.821 274.618 498.199 274.45 498.598 274.436C498.997 274.45 499.375 274.618 499.652 274.904C499.929 275.191 500.084 275.574 500.084 275.972C500.084 276.371 499.929 276.753 499.652 277.04C499.375 277.327 498.997 277.494 498.598 277.508ZM491.581 267.554C491.182 267.54 490.804 267.372 490.527 267.086C490.25 266.799 490.095 266.416 490.095 266.018C490.095 265.62 490.25 265.237 490.527 264.95C490.804 264.664 491.182 264.496 491.581 264.482C491.98 264.496 492.358 264.664 492.635 264.95C492.913 265.237 493.068 265.62 493.068 266.018C493.068 266.416 492.913 266.799 492.635 267.086C492.358 267.372 491.98 267.54 491.581 267.554ZM486.78 257.969C486.381 257.955 486.003 257.787 485.726 257.5C485.449 257.214 485.294 256.831 485.294 256.433C485.294 256.034 485.449 255.651 485.726 255.365C486.003 255.078 486.381 254.91 486.78 254.897C487.179 254.91 487.557 255.078 487.834 255.365C488.112 255.651 488.267 256.034 488.267 256.433C488.267 256.831 488.112 257.214 487.834 257.5C487.557 257.787 487.179 257.955 486.78 257.969ZM482.718 248.752C482.319 248.738 481.941 248.57 481.664 248.284C481.386 247.997 481.231 247.614 481.231 247.216C481.231 246.817 481.386 246.435 481.664 246.148C481.941 245.861 482.319 245.694 482.718 245.68C483.117 245.694 483.495 245.861 483.772 246.148C484.049 246.435 484.205 246.817 484.205 247.216C484.205 247.614 484.049 247.997 483.772 248.284C483.495 248.57 483.117 248.738 482.718 248.752ZM479.394 238.798C478.995 238.784 478.617 238.616 478.34 238.33C478.063 238.043 477.908 237.66 477.908 237.262C477.908 236.863 478.063 236.481 478.34 236.194C478.617 235.907 478.995 235.74 479.394 235.726C479.793 235.74 480.171 235.907 480.448 236.194C480.726 236.481 480.881 236.863 480.881 237.262C480.881 237.66 480.726 238.043 480.448 238.33C480.171 238.616 479.793 238.784 479.394 238.798ZM467.994 209.305C467.595 209.291 467.217 209.123 466.94 208.836C466.663 208.55 466.508 208.167 466.508 207.768C466.508 207.37 466.663 206.987 466.94 206.701C467.217 206.414 467.595 206.246 467.994 206.232C468.393 206.246 468.771 206.414 469.048 206.701C469.326 206.987 469.48 207.37 469.48 207.768C469.48 208.167 469.326 208.55 469.048 208.836C468.771 209.123 468.393 209.291 467.994 209.305ZM467.207 199.719C466.808 199.705 466.43 199.537 466.153 199.251C465.876 198.964 465.721 198.581 465.721 198.183C465.721 197.785 465.876 197.402 466.153 197.115C466.43 196.829 466.808 196.661 467.207 196.647C467.606 196.661 467.984 196.829 468.261 197.115C468.539 197.402 468.694 197.785 468.694 198.183C468.694 198.581 468.539 198.964 468.261 199.251C467.984 199.537 467.606 199.705 467.207 199.719ZM467.577 190.134C467.178 190.12 466.8 189.952 466.522 189.666C466.245 189.379 466.09 188.996 466.09 188.598C466.09 188.199 466.245 187.816 466.522 187.53C466.8 187.243 467.178 187.075 467.577 187.062C467.975 187.075 468.353 187.243 468.631 187.53C468.908 187.816 469.063 188.199 469.063 188.598C469.063 188.996 468.908 189.379 468.631 189.666C468.353 189.952 467.975 190.12 467.577 190.134ZM468.315 180.18C467.916 180.166 467.538 179.998 467.261 179.712C466.984 179.425 466.829 179.042 466.829 178.644C466.829 178.245 466.984 177.862 467.261 177.576C467.538 177.289 467.916 177.121 468.315 177.108C468.714 177.121 469.092 177.289 469.369 177.576C469.647 177.862 469.802 178.245 469.802 178.644C469.802 179.042 469.647 179.425 469.369 179.712C469.092 179.998 468.714 180.166 468.315 180.18ZM470.162 167.645C469.763 167.631 469.385 167.463 469.107 167.177C468.83 166.89 468.675 166.507 468.675 166.109C468.675 165.71 468.83 165.328 469.107 165.041C469.385 164.754 469.763 164.587 470.162 164.573C470.561 164.587 470.939 164.754 471.216 165.041C471.493 165.328 471.648 165.71 471.648 166.109C471.648 166.507 471.493 166.89 471.216 167.177C470.939 167.463 470.561 167.631 470.162 167.645ZM471.27 155.848C470.871 155.834 470.493 155.666 470.215 155.379C469.938 155.093 469.783 154.71 469.783 154.312C469.783 153.913 469.938 153.53 470.215 153.244C470.493 152.957 470.871 152.789 471.27 152.775C471.669 152.789 472.047 152.957 472.324 153.244C472.601 153.53 472.756 153.913 472.756 154.312C472.756 154.71 472.601 155.093 472.324 155.379C472.047 155.666 471.669 155.834 471.27 155.848ZM474.224 144.788C473.825 144.774 473.447 144.606 473.17 144.319C472.893 144.033 472.738 143.65 472.738 143.251C472.738 142.853 472.893 142.47 473.17 142.184C473.447 141.897 473.825 141.729 474.224 141.715C474.623 141.729 475.001 141.897 475.278 142.184C475.555 142.47 475.71 142.853 475.71 143.251C475.71 143.65 475.555 144.033 475.278 144.319C475.001 144.606 474.623 144.774 474.224 144.788ZM506.49 207.203C506.091 207.189 505.713 207.021 505.435 206.734C505.158 206.448 505.003 206.065 505.003 205.666C505.003 205.268 505.158 204.885 505.435 204.599C505.713 204.312 506.091 204.144 506.49 204.13C506.889 204.144 507.266 204.312 507.544 204.599C507.821 204.885 507.976 205.268 507.976 205.666C507.976 206.065 507.821 206.448 507.544 206.734C507.266 207.021 506.889 207.189 506.49 207.203ZM502.71 199.938C502.311 199.925 501.933 199.757 501.655 199.47C501.378 199.184 501.223 198.801 501.223 198.402C501.223 198.004 501.378 197.621 501.655 197.334C501.933 197.048 502.311 196.88 502.71 196.866C503.108 196.88 503.486 197.048 503.764 197.334C504.041 197.621 504.196 198.004 504.196 198.402C504.196 198.801 504.041 199.184 503.764 199.47C503.486 199.757 503.108 199.925 502.71 199.938ZM494.684 196.149C494.285 196.135 493.907 195.967 493.629 195.68C493.352 195.394 493.197 195.011 493.197 194.613C493.197 194.214 493.352 193.831 493.629 193.545C493.907 193.258 494.285 193.09 494.684 193.076C495.082 193.09 495.46 193.258 495.738 193.545C496.015 193.831 496.17 194.214 496.17 194.613C496.17 195.011 496.015 195.394 495.738 195.68C495.46 195.967 495.082 196.135 494.684 196.149ZM489.227 190.128C488.828 190.115 488.45 189.947 488.172 189.66C487.895 189.374 487.74 188.991 487.74 188.592C487.74 188.194 487.895 187.811 488.172 187.524C488.45 187.238 488.828 187.07 489.227 187.056C489.625 187.07 490.003 187.238 490.281 187.524C490.558 187.811 490.713 188.194 490.713 188.592C490.713 188.991 490.558 189.374 490.281 189.66C490.003 189.947 489.625 190.115 489.227 190.128ZM483.5 185.932C483.101 185.918 482.724 185.75 482.446 185.464C482.169 185.177 482.014 184.794 482.014 184.396C482.014 183.997 482.169 183.614 482.446 183.328C482.724 183.041 483.101 182.873 483.5 182.859C483.899 182.873 484.277 183.041 484.555 183.328C484.832 183.614 484.987 183.997 484.987 184.396C484.987 184.794 484.832 185.177 484.555 185.464C484.277 185.75 483.899 185.918 483.5 185.932ZM457.975 178.705C457.576 178.691 457.198 178.523 456.921 178.237C456.643 177.95 456.488 177.567 456.488 177.169C456.488 176.77 456.643 176.388 456.921 176.101C457.198 175.814 457.576 175.647 457.975 175.633C458.374 175.647 458.752 175.814 459.029 176.101C459.306 176.388 459.461 176.77 459.461 177.169C459.461 177.567 459.306 177.95 459.029 178.237C458.752 178.523 458.374 178.691 457.975 178.705ZM228.35 495.278C224.524 493.779 220.773 492.189 217.1 490.463C215.274 489.579 213.454 488.694 211.69 487.712C209.915 486.753 208.168 485.748 206.505 484.626C203.12 482.515 200.078 479.9 197.484 476.872C194.886 473.796 193.362 469.959 193.14 465.941C192.815 468.006 192.932 470.117 193.484 472.133C194.055 474.174 194.974 476.101 196.201 477.829C198.698 481.216 201.813 484.103 205.381 486.338C208.874 488.579 212.59 490.452 216.471 491.926C220.309 493.434 224.288 494.557 228.35 495.278ZM203.741 500.802C199.691 498.163 195.781 495.373 192.012 492.429C188.246 489.509 184.697 486.321 181.391 482.89C178.084 479.513 175.27 475.687 173.033 471.526C170.784 467.325 169.652 462.617 169.746 457.855C168.841 462.714 169.485 467.735 171.586 472.21C173.646 476.684 176.459 480.773 179.903 484.298C183.293 487.807 187.033 490.961 191.065 493.711C195.044 496.49 199.29 498.865 203.741 500.802ZM240.39 195.661C243.128 192.6 245.925 189.642 248.822 186.803C250.287 185.401 251.751 184.006 253.286 182.695C254.803 181.367 256.355 180.081 257.986 178.914C261.146 176.479 264.659 174.54 268.404 173.164C272.197 171.801 276.33 171.708 280.181 172.896C278.355 171.874 276.332 171.25 274.246 171.067C272.131 170.892 270.001 171.082 267.951 171.631C263.902 172.791 260.108 174.703 256.769 177.267C253.45 179.758 250.4 182.586 247.667 185.706C244.916 188.775 242.479 192.109 240.39 195.661ZM246.116 162.231C250.001 159.357 253.981 156.666 258.056 154.161C262.107 151.651 266.335 149.436 270.706 147.534C275.027 145.612 279.599 144.307 284.285 143.66C289.013 143.014 293.828 143.59 298.269 145.333C294.018 142.797 289.079 141.656 284.145 142.067C279.227 142.441 274.409 143.653 269.901 145.652C265.427 147.606 261.165 150.011 257.181 152.83C253.188 155.588 249.482 158.738 246.116 162.231ZM526.93 76.2797C529.531 79.457 532.021 82.677 534.377 85.9773C535.535 87.6411 536.687 89.3024 537.744 91.0205C538.822 92.7243 539.851 94.4554 540.751 96.2461C542.666 99.7418 544.036 103.509 544.813 107.417C545.568 111.369 545.015 115.46 543.237 119.071C544.534 117.43 545.467 115.532 545.975 113.504C546.478 111.446 546.622 109.316 546.4 107.209C545.885 103.036 544.585 98.9962 542.571 95.3028C540.625 91.6416 538.303 88.192 535.643 85.0094C533.036 81.818 530.118 78.8937 526.93 76.2797ZM559.111 87.1478C561.349 91.4281 563.389 95.7728 565.231 100.182C567.082 104.569 568.613 109.084 569.811 113.691C571.038 118.252 571.615 122.963 571.523 127.685C571.423 132.448 570.101 137.105 567.683 141.212C570.856 137.417 572.757 132.726 573.12 127.796C573.519 122.888 573.072 117.948 571.799 113.191C570.565 108.475 568.851 103.896 566.685 99.5275C564.579 95.1596 562.042 91.0125 559.111 87.1478ZM356.012 365.233C362.684 368.365 369.382 371.436 376.08 374.505L386.125 379.114L396.189 383.673L396.684 381.616L396.12 381.578C395.849 381.56 395.581 381.645 395.371 381.817C395.161 381.988 395.024 382.234 394.988 382.502L394.984 382.532L390.025 420.527L385.306 458.55L386.8 457.002L357.002 461.597C347.071 463.141 337.155 464.775 327.239 466.417L267.783 476.497L267.922 476.487C263.097 476.392 258.285 475.957 253.521 475.186C248.747 474.457 244.05 473.296 239.487 471.718C234.922 470.216 230.647 467.95 226.844 465.018C223.068 462.118 220.335 458.076 219.052 453.496L219.074 453.696C219.453 445.553 219.77 437.406 220.2 429.265L221.462 404.839L222.759 380.414L224.006 355.987L221.75 357.438L247.611 368.144L273.468 378.753L273.488 378.761C273.702 378.848 273.928 378.899 274.159 378.912L304.604 380.492L335.054 381.982L365.509 383.343L395.969 384.604L396.056 384.608C396.529 384.626 396.991 384.465 397.35 384.157C397.709 383.849 397.937 383.417 397.99 382.948L401.187 353.844C402.242 344.152 403.333 334.464 404.32 324.764L407.35 295.675L410.257 266.574L410.259 266.558C410.27 266.448 410.24 266.338 410.176 266.248C408.978 264.566 407.48 263.118 405.757 261.977C404.033 260.878 402.15 260.05 400.174 259.523C400.122 259.508 400.067 259.514 400.02 259.54C399.973 259.565 399.937 259.608 399.922 259.659C399.906 259.71 399.911 259.766 399.935 259.813C399.96 259.861 400.002 259.897 400.053 259.914C401.948 260.514 403.739 261.401 405.364 262.546C406.949 263.711 408.314 265.148 409.398 266.788L409.316 266.463L405.364 295.433L401.534 324.414C400.235 334.071 399.039 343.741 397.808 353.405L394.132 382.37L396.153 380.714L365.709 379.108L335.26 377.61L304.806 376.229L274.347 374.936L275.038 375.095L249.009 364.7L222.983 354.402L222.955 354.391C222.554 354.233 222.105 354.239 221.709 354.411C221.312 354.582 221 354.903 220.841 355.304C220.772 355.48 220.733 355.666 220.727 355.854L219.983 380.301L219.29 404.75L218.562 429.198C218.329 437.348 217.982 445.493 217.698 453.641L217.697 453.651C217.695 453.716 217.703 453.78 217.719 453.842C219.11 458.686 222.034 462.951 226.054 465.998C228.007 467.516 230.091 468.857 232.281 470.007C234.474 471.124 236.736 472.101 239.052 472.934C243.686 474.547 248.445 475.773 253.282 476.599C258.115 477.452 263 477.981 267.904 478.183C267.939 478.184 267.974 478.182 268.008 478.178L268.044 478.173L327.749 469.677C337.694 468.223 347.637 466.761 357.567 465.209L387.349 460.515L387.363 460.513C387.745 460.452 388.097 460.268 388.364 459.989C388.631 459.709 388.8 459.35 388.843 458.966L393.111 420.89L397.138 382.786L396.002 383.74L396.567 383.764L396.6 383.765C396.851 383.776 397.098 383.698 397.298 383.545C397.498 383.392 397.637 383.173 397.692 382.928C397.747 382.683 397.714 382.426 397.599 382.203C397.483 381.979 397.293 381.804 397.061 381.706C393.659 380.277 390.274 378.832 386.861 377.438L376.64 373.227C369.829 370.415 363.016 367.606 356.176 364.857C356.127 364.837 356.071 364.837 356.022 364.857C355.973 364.878 355.933 364.916 355.912 364.965C355.89 365.014 355.889 365.069 355.908 365.119C355.926 365.169 355.964 365.21 356.012 365.233Z" fill="#01C396"/>
<path d="M218.385 453.67C220.648 462.352 228.147 467.85 236.648 471.333C235.591 472.891 234.206 474.199 232.588 475.166C230.971 476.132 229.161 476.734 227.286 476.927C225.411 477.121 223.516 476.902 221.735 476.287C219.953 475.671 218.328 474.674 216.975 473.365C215.621 472.055 214.57 470.466 213.898 468.708C213.225 466.95 212.946 465.066 213.08 463.189C213.215 461.312 213.759 459.487 214.675 457.843C215.592 456.198 216.858 454.774 218.385 453.67Z" fill="black"/>
<path d="M369.169 485.502C362.037 485.502 356.255 479.73 356.255 472.61C356.255 465.49 362.037 459.719 369.169 459.719C376.302 459.719 382.083 465.49 382.083 472.61C382.083 479.73 376.302 485.502 369.169 485.502Z" fill="black"/>
<path d="M409.902 266.415L386.386 267.826L362.53 269.332C354.531 269.877 346.509 270.401 338.468 271.012C330.432 271.607 322.387 272.213 314.356 272.899L314.837 272.945L301.506 269.315L288.143 265.796L261.418 258.756L261.405 258.752C261.254 258.712 261.093 258.734 260.958 258.813C260.823 258.891 260.725 259.02 260.685 259.17C260.679 259.197 260.674 259.223 260.67 259.25L258.979 273.189C258.409 277.835 257.806 282.477 257.17 287.114L255.303 301.031L253.334 314.935C253.311 315.098 253.344 315.263 253.427 315.405C253.51 315.547 253.639 315.656 253.792 315.716L253.812 315.723L281.439 326.368L309.124 336.857C309.266 336.911 309.416 336.94 309.568 336.945L309.594 336.945L332.545 337.515C340.195 337.718 347.845 337.888 355.497 338.025L378.451 338.397L401.408 338.642L401.436 338.642C401.776 338.644 402.105 338.521 402.359 338.295C402.613 338.069 402.775 337.757 402.812 337.42L404.72 319.463C405.365 313.48 405.903 307.526 406.493 301.593L409.902 266.415ZM409.681 266.628L404.733 302.185C403.93 308.042 403.075 313.877 402.327 319.684L400.057 337.095L401.461 335.873L378.511 335.246L355.559 334.745C347.908 334.593 340.257 334.472 332.605 334.383L309.649 334.08L310.119 334.169L282.251 324.174L254.324 314.336L254.802 315.124L256.427 301.176L258.156 287.241C258.72 282.594 259.316 277.952 259.942 273.313L261.846 259.401L261.098 259.895L287.582 267.788L300.824 271.736L314.097 275.573C314.246 275.616 314.402 275.633 314.557 275.621L314.578 275.619C322.435 275.015 330.277 274.332 338.128 273.637C345.975 272.959 353.841 272.193 361.729 271.448L409.681 266.628Z" fill="#01C396"/>
<path d="M344.277 465.609L345.826 465.384L346.329 462.134L349.601 422.819L352.72 382.983L353.089 378.282L351.478 378.18C351.243 379.757 351.017 381.344 350.801 382.921C350.329 386.301 349.909 389.68 349.498 393.07C348.862 397.975 348.411 402.891 347.867 407.806L346.544 422.574L345.487 437.351C345.231 442.287 344.882 447.223 344.728 452.159C344.585 455.59 344.461 459.021 344.38 462.451C344.328 464.428 344.298 463.633 344.277 465.609ZM300.72 472.231L302.392 471.985L302.874 469.292L306.7 427.51L310.711 381.344L310.887 377.539L309.502 377.467C309.214 379.259 309.234 379.48 308.967 381.273C308.27 385.973 307.644 390.684 307.049 395.395C306.342 400.689 305.818 406.004 305.203 411.309L303.644 427.243L302.361 443.199C302.033 448.534 301.612 453.849 301.376 459.184C301.192 462.666 301.028 466.138 300.894 469.62C300.833 471.351 300.771 470.5 300.72 472.231ZM274.181 375.342L273.638 379.552L269.011 420.546L262.569 475.109L262.282 477.505C262.276 477.542 262.258 477.576 262.23 477.6C262.201 477.625 262.165 477.638 262.128 477.638C262.087 477.637 262.049 477.621 262.02 477.592C261.991 477.564 261.975 477.525 261.974 477.485V477.464C261.974 476.665 261.984 475.867 261.994 475.068C262.087 466.261 262.589 457.505 263.246 448.749C263.554 443.977 264.046 439.225 264.457 434.453C264.918 429.701 265.462 424.949 265.965 420.198L267.739 405.973C268.437 401.242 269.032 396.501 269.822 391.78C270.488 387.489 271.207 383.188 271.976 378.907C272.304 377.115 272.56 376.632 272.919 374.84L274.181 375.342ZM234.482 471.955C234.974 472.18 235.466 472.405 235.969 472.61L236.308 469.609L242.165 418.078L247.582 368.625L247.875 365.364L246.408 364.801C246.141 366.327 246.115 366.362 245.868 367.888C245.068 372.793 244.316 377.698 243.611 382.604C242.709 388.451 242.011 394.309 241.211 400.157L239.118 417.74L237.292 435.354C236.78 441.232 236.174 447.111 235.764 452.999C235.353 458.294 234.964 463.598 234.656 468.903C234.594 469.917 234.533 470.941 234.482 471.955ZM281.434 472.938C281.434 474.464 281.424 474.004 281.434 475.53C281.998 475.448 282.562 475.377 283.127 475.295L283.383 472.6L285.702 427.755L287.938 380.33L288.205 376.96C287.712 376.94 287.21 376.919 286.717 376.889C286.502 378.711 286.307 378.415 286.132 380.238C285.661 384.785 285.25 389.322 284.871 393.869C284.347 399.481 284.019 405.113 283.599 410.735L282.624 427.612L281.937 444.499C281.793 450.132 281.567 455.764 281.537 461.407C281.475 465.247 281.434 469.097 281.434 472.938ZM367.881 458.621C367.871 460.7 367.871 462.789 367.892 464.878L369.41 464.653L369.841 458.304L372.303 421.928L374.673 383.689L374.919 379.624C374.406 379.593 373.883 379.562 373.37 379.532C373.175 380.904 372.99 382.266 372.816 383.638C372.374 387.151 371.975 390.674 371.595 394.196C371.052 398.774 370.702 403.372 370.262 407.95L369.225 421.724C368.979 426.322 368.692 430.92 368.476 435.518C368.323 440.116 368.076 444.714 368.025 449.323C367.953 452.415 367.906 455.515 367.881 458.621ZM319.995 471.985L321.637 471.75L322.324 466.066L327.207 425.697L332.244 382.235L332.454 378.795L330.987 378.713C330.659 380.413 330.726 380.453 330.418 382.163C329.689 386.311 329.013 390.469 328.356 394.627C327.515 399.726 326.858 404.847 326.109 409.967L324.15 425.339L322.468 440.741C322.006 445.892 321.452 451.022 321.083 456.184C320.806 459.584 320.549 462.984 320.334 466.394C320.211 468.258 320.098 470.122 319.995 471.985ZM339.845 344.915C340.336 344.289 340.724 343.591 340.998 342.845C341.262 342.144 341.455 341.419 341.576 340.681C341.699 339.943 341.746 339.194 341.719 338.447C341.697 337.652 341.55 336.866 341.281 336.118C340.789 336.742 340.399 337.441 340.126 338.187C339.862 338.888 339.669 339.613 339.551 340.351C339.43 341.09 339.383 341.839 339.411 342.586C339.433 343.38 339.579 344.166 339.845 344.915Z" fill="black"/>
<path d="M339.033 466.252C338.249 468.425 336.894 470.348 335.11 471.818C333.326 473.288 331.178 474.252 328.892 474.609C326.606 474.965 324.267 474.701 322.118 473.843C319.97 472.986 318.092 471.567 316.683 469.736L339.033 466.252ZM439.391 245.895C439.851 245.745 440.242 245.433 440.491 245.018C440.74 244.602 440.829 244.111 440.743 243.635C440.658 243.158 440.402 242.729 440.024 242.426C439.645 242.124 439.17 241.968 438.686 241.987L438.575 241.992C436.733 242.09 434.887 242.158 433.062 242.344L430.316 242.582L428.943 242.701C428.484 242.747 427.934 242.827 427.434 242.911C423.277 243.61 419.373 245.377 416.107 248.039C412.82 250.71 410.273 254.178 408.712 258.113C407.944 260.06 407.43 262.098 407.182 264.176L406.887 267.026L406.591 269.751L405.433 280.652L403.167 302.462C402.39 309.729 401.71 317.008 400.995 324.283C400.287 331.56 399.562 338.833 398.918 346.118C397.577 360.68 396.299 375.25 395.213 389.846C397.628 375.425 399.851 360.979 402.011 346.524C403.117 339.301 404.144 332.066 405.186 324.834C406.221 317.601 407.292 310.373 408.266 303.132L411.252 281.417L412.72 270.556L413.08 267.84C413.167 266.971 413.307 266.109 413.498 265.257C413.873 263.734 414.401 262.253 415.074 260.835C416.421 258.015 418.338 255.504 420.705 253.459C423.072 251.415 425.837 249.881 428.826 248.955L433.992 247.52C435.768 247.059 437.524 246.479 439.284 245.929L439.391 245.895Z" fill="black"/>
<path d="M481.421 186.833C480.379 188.707 479.364 190.595 478.353 192.484C477.343 194.375 476.313 196.255 475.332 198.159L472.357 203.857C471.374 205.76 470.357 207.647 469.4 209.564L469.625 209.291C466.673 211.504 463.572 213.511 460.344 215.298C458.726 216.179 457.092 217.032 455.415 217.794C453.753 218.587 452.064 219.318 450.345 219.985C446.916 221.344 443.404 222.481 439.829 223.39C436.237 224.284 432.586 224.917 428.902 225.285L428.939 225.284C426.2 225.354 423.461 225.382 420.722 225.419L420.784 225.425C419.55 225.297 418.307 225.535 417.208 226.108C416.137 226.62 415.121 227.241 414.177 227.96C412.279 229.369 410.59 231.039 409.16 232.92C408.401 233.869 407.822 234.947 407.45 236.103C407.358 236.429 407.324 236.769 407.352 237.106C407.406 237.446 407.527 237.771 407.709 238.063C408.001 238.592 408.317 239.085 408.642 239.578C408.971 240.071 409.301 240.551 409.688 241.033C409.807 241.188 409.946 241.326 410.102 241.444C410.285 241.557 410.37 241.594 410.51 241.675L411.274 242.098C411.787 242.38 412.302 242.66 412.833 242.928C413.1 243.061 413.368 243.192 413.65 243.314C413.976 243.471 414.324 243.575 414.683 243.623L414.178 243.295C414.427 243.854 414.808 244.346 415.287 244.727C415.789 245.101 416.38 245.337 417.002 245.412C417.584 245.474 418.174 245.442 418.746 245.317C419.308 245.202 419.855 245.021 420.375 244.777L419.385 244.379C419.514 244.786 419.696 245.175 419.925 245.535C420.175 245.923 420.502 246.256 420.885 246.514C421.28 246.775 421.729 246.945 422.198 247.01C422.667 247.078 423.145 247.052 423.604 246.932C423.762 246.893 423.901 246.797 423.993 246.663L424.046 246.586C424.598 245.719 425.269 244.933 426.04 244.252C426.819 243.569 427.683 242.99 428.611 242.529C429.548 242.061 430.529 241.687 431.539 241.412C432.537 241.131 433.56 240.947 434.593 240.861L434.62 240.859L434.681 240.852C441.491 239.806 448.166 238.457 454.862 237.061C461.546 235.635 468.201 234.106 474.822 232.328C478.228 231.523 481.496 230.224 484.524 228.472C487.546 226.693 490.237 224.407 492.478 221.714C493.589 220.374 494.587 218.945 495.462 217.442C496.306 215.943 497.074 214.402 497.762 212.826L501.995 203.516C502.006 203.492 502.007 203.464 501.998 203.439C501.989 203.414 501.971 203.394 501.947 203.382C501.923 203.37 501.895 203.368 501.87 203.376C501.845 203.384 501.823 203.402 501.811 203.425L496.966 212.433C496.152 213.94 495.42 215.463 494.495 216.851C493.589 218.255 492.57 219.582 491.445 220.818C489.199 223.275 486.572 225.356 483.666 226.983C482.22 227.792 480.707 228.475 479.143 229.022C477.558 229.562 475.946 230.018 474.313 230.388C467.721 232.022 461.053 233.464 454.402 234.93C447.749 236.362 441.072 237.865 434.406 238.981L434.493 238.973C433.319 239.08 432.158 239.307 431.03 239.648C429.911 239.986 428.829 240.433 427.799 240.984C426.757 241.539 425.792 242.226 424.927 243.028C424.059 243.838 423.31 244.766 422.702 245.785L423.144 245.439C422.9 245.5 422.647 245.517 422.398 245.49C422.146 245.468 421.903 245.388 421.686 245.258C421.463 245.12 421.27 244.938 421.12 244.722C420.952 244.479 420.816 244.215 420.714 243.937L420.698 243.896C420.629 243.725 420.495 243.588 420.325 243.515C420.154 243.442 419.962 243.44 419.791 243.508L419.725 243.539C419.32 243.745 418.893 243.905 418.452 244.016C418.023 244.13 417.579 244.175 417.136 244.149C416.732 244.118 416.342 243.984 416.006 243.758C415.67 243.509 415.398 243.184 415.212 242.809L415.171 242.741C415.123 242.661 415.054 242.596 414.973 242.55C414.892 242.505 414.8 242.481 414.707 242.481C414.49 242.442 414.277 242.378 414.074 242.291C413.818 242.191 413.559 242.076 413.3 241.959C412.782 241.721 412.265 241.464 411.748 241.203L410.971 240.809L410.612 240.624C410.631 240.644 410.483 240.502 410.412 240.417C410.055 240.005 409.706 239.539 409.373 239.076C409.041 238.61 408.712 238.134 408.425 237.655C408.288 237.46 408.191 237.24 408.139 237.007C408.111 236.764 408.13 236.519 408.193 236.284C408.529 235.22 409.053 234.224 409.74 233.344C411.106 231.498 412.726 229.854 414.552 228.46C415.456 227.761 416.436 227.168 417.473 226.691C418.454 226.184 419.561 225.975 420.659 226.09L420.721 226.096C423.461 226.135 426.2 226.165 428.939 226.238L428.954 226.238L428.976 226.237C432.731 226.033 436.465 225.555 440.15 224.804C447.559 223.314 454.673 220.616 461.205 216.82C464.469 214.94 467.599 212.838 470.573 210.528L470.58 210.522C470.672 210.451 470.747 210.359 470.799 210.255C471.744 208.332 472.63 206.381 473.548 204.446L476.281 198.628C477.202 196.694 478.074 194.736 478.966 192.787C479.857 190.838 480.744 188.888 481.605 186.924C481.616 186.899 481.616 186.872 481.607 186.847C481.598 186.823 481.58 186.802 481.556 186.791C481.533 186.779 481.506 186.777 481.48 186.785C481.455 186.792 481.434 186.81 481.421 186.833Z" fill="#01C396"/>
<path d="M426.882 236.478C425.251 237.206 423.765 238.22 422.493 239.472C421.847 240.101 421.274 240.801 420.783 241.557C420.237 242.31 419.977 243.232 420.05 244.158C420.359 243.363 420.828 242.64 421.427 242.032C422.001 241.409 422.595 240.8 423.21 240.204C424.436 238.999 425.705 237.829 426.882 236.478ZM421.83 234.755C420.059 235.52 418.454 236.624 417.107 238.004C416.419 238.702 415.832 239.494 415.364 240.355C415.098 240.78 414.926 241.256 414.857 241.752C414.789 242.248 414.827 242.753 414.967 243.234C415.083 242.326 415.458 241.471 416.047 240.771C416.602 240.05 417.201 239.364 417.842 238.718C419.129 237.398 420.508 236.153 421.83 234.755ZM410.382 241.053C411.369 239.646 412.157 238.197 412.996 236.788C413.402 236.076 413.839 235.392 414.286 234.719C414.719 234.024 415.273 233.412 415.921 232.911C415.047 233.078 414.255 233.535 413.672 234.207C413.071 234.829 412.547 235.522 412.113 236.269C411.236 237.739 410.649 239.363 410.382 241.053Z" fill="black"/>
<path d="M432.082 240.317L428.075 241.82L435.551 244.568L439.278 243.898L432.082 240.317Z" fill="black"/>
<path d="M413.437 228.945L410.067 227.182L408.429 231.195L410.081 232.317L413.437 228.945Z" fill="black"/>
<path d="M307.596 331.281C307.704 326.957 307.999 322.647 308.206 318.331C308.468 314.019 308.808 309.713 309.106 305.404L310.288 292.5C310.781 288.207 311.175 283.906 311.766 279.62C312.014 277.652 312.273 275.685 312.545 273.719L314.467 274.259L314.645 273.902L312.171 305.651L309.667 335.517L307.482 334.724C307.516 333.576 307.554 332.428 307.596 331.281ZM289.435 324.954C289.543 320.63 289.838 316.321 290.045 312.004C290.307 307.692 290.648 303.387 290.945 299.078L292.127 286.173C292.62 281.88 293.015 277.579 293.605 273.293C293.853 271.326 294.112 269.359 294.384 267.393L296.306 267.932L296.484 267.576L294.011 299.325L291.506 329.19L289.321 328.397C289.355 327.249 289.393 326.102 289.435 324.954ZM331.408 331.281C331.516 326.957 331.811 322.647 332.018 318.331C332.28 314.019 332.621 309.713 332.918 305.404L334.1 292.5C334.593 288.207 334.988 283.906 335.578 279.62C335.826 277.652 336.085 275.685 336.357 273.719L338.279 274.259L338.457 273.902L335.984 305.651L333.479 335.517L331.294 334.724C331.328 333.576 331.366 332.428 331.408 331.281ZM357.495 333.658C357.602 328.914 357.897 324.188 358.104 319.453C358.367 314.724 358.707 310.001 359.004 305.275L360.186 291.121C360.679 286.412 361.074 281.694 361.665 276.994C361.912 274.836 362.172 272.678 362.443 270.522L364.366 271.114L364.543 270.723L362.07 305.546L359.566 338.303L357.38 337.434C357.415 336.175 357.453 334.916 357.495 333.658ZM382.444 332.072C382.552 327.248 382.847 322.44 383.053 317.624C383.316 312.814 383.656 308.01 383.954 303.203L385.135 288.806C385.629 284.016 386.023 279.218 386.614 274.436C386.861 272.241 387.121 270.047 387.393 267.853L389.315 268.455L389.492 268.057L387.019 303.478L384.515 336.798L382.33 335.913C382.364 334.633 382.402 333.352 382.444 332.072ZM268.498 318.952C268.606 314.627 268.901 310.318 269.108 306.002C269.371 301.69 269.711 297.384 270.008 293.075L271.19 280.171C271.683 275.877 272.078 271.576 272.669 267.291C272.916 265.323 273.176 264.649 273.447 262.683L275.369 263.223L275.547 262.866L273.074 293.322L270.57 321.698L268.384 320.905C268.384 320.905 268.457 320.099 268.498 318.952Z" fill="black"/>
<path d="M305.898 354.788C309.315 355.062 312.732 355.372 316.149 355.77L316.167 355.772C316.205 355.776 316.241 355.796 316.266 355.826C316.291 355.855 316.304 355.894 316.302 355.933C316.3 355.972 316.283 356.008 316.254 356.035C316.226 356.062 316.188 356.077 316.149 356.077L306.695 356.103C306.445 355.672 306.178 355.232 305.898 354.788ZM222.37 354.225C225.824 354.019 229.278 353.848 232.733 353.712C237.367 353.476 242.001 353.437 246.635 353.29L260.538 353.161C265.173 353.212 269.807 353.218 274.441 353.306C277.625 353.402 280.809 353.462 283.993 353.565C285.411 354.651 286.982 355.523 288.655 356.153L260.538 356.23L220.582 356.122C220.583 355.638 220.768 355.172 221.1 354.82C221.432 354.468 221.886 354.255 222.37 354.225ZM266.108 442.803L266.518 442.844L271.247 403.591L274.181 376.894L271.822 375.941C271.227 378.481 270.683 381.024 270.191 383.571C269.493 386.807 269.052 390.073 268.488 393.33C268.006 396.587 267.606 399.853 267.175 403.12C266.867 406.407 266.498 409.685 266.231 412.962C266.047 416.259 265.738 419.546 265.677 422.854C265.36 429.506 265.504 436.171 266.108 442.803Z" fill="#01C396"/>
</svg>
