<svg width="34" height="34" viewBox="0 0 34 34" fill="none" xmlns="http://www.w3.org/2000/svg">
<path d="M30.4583 21.25C30.4552 20.3996 30.197 19.5697 29.7172 18.8676C29.2373 18.1655 28.5579 17.6235 27.7667 17.3117L30.4158 7.39499C30.4712 7.1838 30.477 6.96267 30.4327 6.74887C30.3885 6.53507 30.2954 6.33439 30.1608 6.16249C30.0232 6.00143 29.8513 5.87327 29.6576 5.78746C29.4639 5.70165 29.2534 5.66037 29.0417 5.66666H9.63334L9.16584 3.88166C9.08456 3.57978 8.90571 3.31327 8.65715 3.12365C8.4086 2.93403 8.1043 2.83195 7.79168 2.83333H4.95834V5.66666H6.70084L10.2142 18.785C10.2972 19.0941 10.4824 19.3659 10.7397 19.5563C10.9969 19.7466 11.311 19.8443 11.6308 19.8333H26.2083C26.5841 19.8333 26.9444 19.9826 27.2101 20.2483C27.4758 20.5139 27.625 20.8743 27.625 21.25C27.625 21.6257 27.4758 21.986 27.2101 22.2517C26.9444 22.5174 26.5841 22.6667 26.2083 22.6667H7.79168C7.41595 22.6667 7.05562 22.8159 6.78994 23.0816C6.52427 23.3473 6.37501 23.7076 6.37501 24.0833C6.37501 24.459 6.52427 24.8194 6.78994 25.0851C7.05562 25.3507 7.41595 25.5 7.79168 25.5H9.46334C9.23035 26.1419 9.15548 26.8306 9.24508 27.5076C9.33467 28.1846 9.58609 28.83 9.97804 29.3892C10.37 29.9485 10.8909 30.405 11.4968 30.7202C12.1026 31.0354 12.7754 31.2 13.4583 31.2C14.1413 31.2 14.8141 31.0354 15.4199 30.7202C16.0257 30.405 16.5467 29.9485 16.9386 29.3892C17.3306 28.83 17.582 28.1846 17.6716 27.5076C17.7612 26.8306 17.6863 26.1419 17.4533 25.5H20.7967C20.5846 26.0845 20.5033 26.7085 20.5587 27.3278C20.614 27.9472 20.8046 28.5468 21.1169 29.0845C21.4293 29.6222 21.8558 30.0847 22.3664 30.4396C22.877 30.7945 23.4593 31.033 24.0721 31.1383C24.6849 31.2435 25.3134 31.2131 25.9132 31.049C26.513 30.8849 27.0694 30.5913 27.5434 30.1887C28.0173 29.7861 28.397 29.2845 28.6559 28.7191C28.9148 28.1537 29.0465 27.5385 29.0417 26.9167C29.039 26.1848 28.8436 25.4665 28.475 24.8342C29.0808 24.4522 29.5803 23.9234 29.927 23.2968C30.2737 22.6702 30.4565 21.9661 30.4583 21.25ZM24.9192 17H12.75L10.3983 8.49999H27.2L24.9192 17ZM13.4583 28.3333C13.1782 28.3333 12.9043 28.2502 12.6713 28.0946C12.4383 27.9389 12.2567 27.7177 12.1495 27.4588C12.0423 27.1999 12.0142 26.9151 12.0689 26.6403C12.1236 26.3655 12.2585 26.113 12.4566 25.9149C12.6547 25.7168 12.9072 25.5819 13.182 25.5272C13.4568 25.4726 13.7416 25.5006 14.0005 25.6078C14.2593 25.7151 14.4806 25.8966 14.6363 26.1296C14.7919 26.3626 14.875 26.6365 14.875 26.9167C14.875 27.2924 14.7258 27.6527 14.4601 27.9184C14.1944 28.1841 13.8341 28.3333 13.4583 28.3333ZM24.7917 28.3333C24.5115 28.3333 24.2376 28.2502 24.0046 28.0946C23.7716 27.9389 23.5901 27.7177 23.4828 27.4588C23.3756 27.1999 23.3476 26.9151 23.4022 26.6403C23.4569 26.3655 23.5918 26.113 23.7899 25.9149C23.9881 25.7168 24.2405 25.5819 24.5153 25.5272C24.7901 25.4726 25.0749 25.5006 25.3338 25.6078C25.5927 25.7151 25.8139 25.8966 25.9696 26.1296C26.1253 26.3626 26.2083 26.6365 26.2083 26.9167C26.2083 27.2924 26.0591 27.6527 25.7934 27.9184C25.5277 28.1841 25.1674 28.3333 24.7917 28.3333Z" fill="black"/>
</svg>
