<svg width="34" height="34" viewBox="0 0 34 34" fill="none" xmlns="http://www.w3.org/2000/svg">
<path d="M30.7558 28.7442L25.5 23.5308C27.5401 20.9871 28.5281 17.7583 28.2608 14.5085C27.9935 11.2587 26.4912 8.23476 24.0628 6.05857C21.6344 3.88237 18.4645 2.71929 15.205 2.80849C11.9454 2.89768 8.84384 4.23237 6.5381 6.5381C4.23237 8.84384 2.89768 11.9454 2.80849 15.205C2.71929 18.4645 3.88237 21.6344 6.05857 24.0628C8.23476 26.4912 11.2587 27.9935 14.5085 28.2608C17.7583 28.5281 20.9871 27.5401 23.5308 25.5L28.7442 30.7133C28.8759 30.8461 29.0325 30.9515 29.2052 31.0234C29.3778 31.0953 29.563 31.1324 29.75 31.1324C29.937 31.1324 30.1222 31.0953 30.2948 31.0234C30.4674 30.9515 30.6241 30.8461 30.7558 30.7133C31.0112 30.4492 31.1539 30.0961 31.1539 29.7287C31.1539 29.3613 31.0112 29.0083 30.7558 28.7442ZM15.5833 25.5C13.622 25.5 11.7047 24.9184 10.0739 23.8287C8.44313 22.7391 7.17208 21.1903 6.42151 19.3783C5.67095 17.5662 5.47456 15.5723 5.8572 13.6487C6.23984 11.725 7.18431 9.95805 8.57118 8.57118C9.95805 7.18431 11.725 6.23984 13.6487 5.8572C15.5723 5.47456 17.5662 5.67095 19.3783 6.42151C21.1903 7.17208 22.7391 8.44313 23.8287 10.0739C24.9184 11.7047 25.5 13.622 25.5 15.5833C25.5 18.2134 24.4552 20.7357 22.5955 22.5955C20.7357 24.4552 18.2134 25.5 15.5833 25.5Z" fill="black"/>
</svg>
